<svg version="1.1" xmlns="http://www.w3.org/2000/svg" viewBox="-375.50000100000005 -379.79119928720576 751.0000020000001 756.5210107245687" fill="none" stroke="black" stroke-width="0.6%" vector-effect="non-scaling-stroke">
    <path d="M 64.38959 -29.33989 A 156 65.82968 360 0 1 5.5 -23.51162" />
    <path d="M -5.5 -23.51162 A 156 65.82968 360 0 1 -64.38959 -29.33989" />
    <path d="M -303.24653 -118.05225 A 320.5 135.24623 180 0 0 -259.01321 -82.17237" />
    <path d="M -222.70526 -64.56801 A 320.5 135.24623 180 0 0 -5.5 -26.60228" />
    <path d="M 5.5 -26.60228 A 320.5 135.24623 180 0 0 222.70526 -64.56801" />
    <path d="M 259.01321 -82.17237 A 320.5 135.24623 180 0 0 303.24653 -118.05225" />
    <path d="M -156 200.81251 A 156 65.82968 180 0 0 -5.5 266.60126" />
    <path d="M 5.5 266.60126 A 156 65.82968 180 0 0 156 200.81251" />
    <path d="M -285.8 225.7985 L -285.8 135.7746" />
    <path d="M -285.8 96.85814 L -285.8 -1.12242" />
    <path d="M -285.8 -40.03887 L -285.8 -100.62095" />
    <path d="M -360.8 225.7985 L -343.72671 225.7985" />
    <path d="M -294.14884 225.7985 L -285.8 225.7985" />
    <path d="M -360.8 -102.3917 L -360.8 -168.4316" />
    <path d="M -324.25336 -102.3917 L -360.8 -102.3917" />
    <path d="M -360.8 34.50532 L -360.8 -83.39651" />
    <path d="M -324.25336 34.50532 L -360.8 34.50532" />
    <path d="M -360.8 170.49573 L -360.8 53.5005" />
    <path d="M -324.25336 170.49573 L -360.8 170.49573" />
    <path d="M -360.8 225.7985 L -360.8 189.49092" />
    <path d="M -259.01321 329.49503 L -259.01321 284.74475" />
    <path d="M -259.01321 274.19226 L -259.01321 148.75434" />
    <path d="M -259.01321 138.20185 L -259.01321 11.85732" />
    <path d="M -259.01321 1.30483 L -259.01321 -96.64429" />
    <path d="M -198.20203 310.39816 L -198.20203 305.87391" />
    <path d="M -198.20203 276.49145 L -198.20203 169.88349" />
    <path d="M -198.20203 140.50104 L -198.20203 32.98648" />
    <path d="M -198.20203 3.60402 L -198.20203 -55.54512" />
    <path d="M -251.23504 332.7773 L -198.20203 310.39816" />
    <path d="M -222.70526 -83.73144 L -222.70526 -64.56801" />
    <path d="M -251.23504 4.5871 L -251.23504 -93.5893" />
    <path d="M -225.39266 -6.318 L -251.23504 4.5871 L -259.01321 1.30483" />
    <path d="M -251.23504 141.48412 L -251.23504 15.12228" />
    <path d="M -225.39266 130.57902 L -251.23504 141.48412 L -259.01321 138.20185" />
    <path d="M -251.23504 277.47453 L -251.23504 152.01929" />
    <path d="M -225.39266 266.56943 L -251.23504 277.47453 L -259.01321 274.19226" />
    <path d="M -251.23504 332.7773 L -251.23504 288.00971" />
    <path d="M -5.5 375.72981 L -5.5 330.80402" />
    <path d="M -5.5 320.42704 L -5.5 194.8136" />
    <path d="M -5.5 184.43663 L -5.5 57.91659" />
    <path d="M -5.5 47.53961 L -5.5 -52.76876" />
    <path d="M 5.5 47.53961 L 5.5 -52.76876" />
    <path d="M 5.5 184.43663 L 5.5 57.91659" />
    <path d="M 5.5 320.42704 L 5.5 194.8136" />
    <path d="M 5.5 375.72981 L 5.5 330.80402" />
    <path d="M 222.70526 -83.73144 L 222.70526 -64.56801" />
    <path d="M 198.20203 310.39816 L 251.23504 332.7773 L 259.01321 329.49503 L 259.01321 284.74475" />
    <path d="M 251.23504 332.7773 L 251.23504 288.00971" />
    <path d="M 251.23504 277.47453 L 225.39266 266.56943 A 324.3 136.84977 360 0 1 5.5 305.0049" />
    <path d="M 251.23504 277.47453 L 251.23504 152.01929" />
    <path d="M 251.23504 141.48412 L 225.39266 130.57902 A 324.3 136.84977 360 0 1 5.5 169.01449" />
    <path d="M 251.23504 141.48412 L 251.23504 15.12228" />
    <path d="M 251.23504 4.5871 L 225.39266 -6.318 A 324.3 136.84977 360 0 1 5.5 32.11747" />
    <path d="M 251.23504 4.5871 L 251.23504 -93.5893" />
    <path d="M 198.20203 310.39816 L 198.20203 305.87391" />
    <path d="M 198.20203 276.49145 L 198.20203 169.88349" />
    <path d="M 198.20203 140.50104 L 198.20203 32.98648" />
    <path d="M 198.20203 3.60402 L 198.20203 -55.54512" />
    <path d="M 259.01321 1.30483 L 259.01321 -96.64429" />
    <path d="M 259.01321 138.20185 L 259.01321 11.85732" />
    <path d="M 259.01321 274.19226 L 259.01321 148.75434" />
    <path d="M 285.8 225.7985 L 294.14884 225.7985" />
    <path d="M 343.72671 225.7985 L 360.8 225.7985 L 360.8 189.49092" />
    <path d="M 360.8 170.49573 L 324.25336 170.49573 A 324.3 136.84977 360 0 1 259.01321 250.52426" />
    <path d="M 360.8 170.49573 L 360.8 53.5005" />
    <path d="M 360.8 34.50532 L 324.25336 34.50532 A 324.3 136.84977 360 0 1 259.01321 114.53385" />
    <path d="M 360.8 34.50532 L 360.8 -83.39651" />
    <path d="M 360.8 -102.3917 L 324.25336 -102.3917 A 324.3 136.84977 360 0 1 259.01321 -22.36317" />
    <path d="M 360.8 -102.3917 L 360.8 -168.4316" />
    <path d="M 285.8 225.7985 L 285.8 135.7746" />
    <path d="M 285.8 96.85814 L 285.8 -1.12242" />
    <path d="M 285.8 -40.03887 L 285.8 -100.62095" />
    <path d="M -374.5 -210.78514 A 374.5 158.03343 180 0 0 374.5 -210.78514" />
    <path d="M -349.47196 217.66244 A 361.8 152.67422 180 0 0 361.8 178.14744" />
    <path d="M -361.8 178.14744 A 361.8 152.67422 180 0 0 -349.47196 217.66244" />
    <path d="M -259.01321 95.79799 A 324.3 136.84977 180 0 0 -274.33455 105.16592" />
    <path d="M -156 58.17114 A 324.3 136.84977 180 0 0 -198.20203 69.8308" />
    <path d="M 198.20203 69.8308 A 324.3 136.84977 180 0 0 156 58.17114" />
    <path d="M 274.33455 105.16592 A 324.3 136.84977 180 0 0 259.01321 95.79799" />
    <path d="M -281.43746 100.1796 A 324.3 136.84977 360 0 1 -259.01321 85.82536" />
    <path d="M -349.47196 207.68981 A 361.8 152.67422 360 0 1 -361.8 168.17481 L -361.8 178.14744" />
    <path d="M -361.8 168.17481 A 361.8 152.67422 360 0 1 -360.8 156.83134" />
    <path d="M -285.8 74.55724 A 361.8 152.67422 360 0 1 -259.01321 61.5775" />
    <path d="M -198.20203 40.44835 A 361.8 152.67422 360 0 1 -183.99361 36.71741" />
    <path d="M 183.99361 36.71741 A 361.8 152.67422 360 0 1 198.20203 40.44835" />
    <path d="M 259.01321 61.5775 A 361.8 152.67422 360 0 1 285.8 74.55724" />
    <path d="M 360.8 156.83134 A 361.8 152.67422 360 0 1 361.8 168.17481 L 361.8 178.14744" />
    <path d="M 361.8 168.17481 A 361.8 152.67422 360 0 1 -349.47196 207.68981" />
    <path d="M -313.24975 203.59414 A 324.3 136.84977 360 0 1 -324.25336 170.49573" />
    <path d="M -198.20203 59.85817 A 324.3 136.84977 360 0 1 -156 48.19851" />
    <path d="M 156 48.19851 A 324.3 136.84977 360 0 1 198.20203 59.85817" />
    <path d="M 259.01321 85.82536 A 324.3 136.84977 360 0 1 281.43746 100.1796" />
    <path d="M 259.01321 274.19226 L 251.23504 277.47453" />
    <path d="M 5.5 320.42704 L -5.5 320.42704" />
    <path d="M -5.5 305.0049 A 324.3 136.84977 360 0 1 -225.39266 266.56943" />
    <path d="M -259.01321 250.52426 A 324.3 136.84977 360 0 1 -313.24975 203.59414" />
    <path d="M -349.47196 81.67202 A 361.8 152.67422 180 0 0 361.8 42.15703" />
    <path d="M -361.8 42.15703 A 361.8 152.67422 180 0 0 -349.47196 81.67202" />
    <path d="M -259.01321 -40.19242 A 324.3 136.84977 180 0 0 -273.65439 -31.2778" />
    <path d="M 273.65439 -31.2778 A 324.3 136.84977 180 0 0 259.01321 -40.19242" />
    <path d="M -280.81971 -36.26411 A 324.3 136.84977 360 0 1 -259.01321 -50.16505" />
    <path d="M -349.47196 71.69939 A 361.8 152.67422 360 0 1 -361.8 32.1844 L -361.8 42.15703" />
    <path d="M -361.8 32.1844 A 361.8 152.67422 360 0 1 -360.8 20.84092" />
    <path d="M -285.8 -61.43317 A 361.8 152.67422 360 0 1 -259.01321 -74.41291" />
    <path d="M 259.01321 -74.41291 A 361.8 152.67422 360 0 1 285.8 -61.43317" />
    <path d="M 360.8 20.84092 A 361.8 152.67422 360 0 1 361.8 32.1844 L 361.8 42.15703" />
    <path d="M 361.8 32.1844 A 361.8 152.67422 360 0 1 -349.47196 71.69939" />
    <path d="M -313.24975 67.60373 A 324.3 136.84977 360 0 1 -324.25336 34.50532" />
    <path d="M 259.01321 -50.16505 A 324.3 136.84977 360 0 1 280.81971 -36.26411" />
    <path d="M 259.01321 138.20185 L 251.23504 141.48412" />
    <path d="M 5.5 184.43663 L -5.5 184.43663" />
    <path d="M -5.5 169.01449 A 324.3 136.84977 360 0 1 -225.39266 130.57902" />
    <path d="M -259.01321 114.53385 A 324.3 136.84977 360 0 1 -313.24975 67.60373" />
    <path d="M -349.47196 -55.22499 A 361.8 152.67422 180 0 0 361.8 -94.73999" />
    <path d="M -361.8 -94.73999 A 361.8 152.67422 180 0 0 -349.47196 -55.22499" />
    <path d="M -349.47196 -65.19762 A 361.8 152.67422 360 0 1 -361.8 -104.71262 L -361.8 -94.73999" />
    <path d="M -361.8 -104.71262 A 361.8 152.67422 360 0 1 -360.8 -116.05609" />
    <path d="M 360.8 -116.05609 A 361.8 152.67422 360 0 1 361.8 -104.71262 L 361.8 -94.73999" />
    <path d="M 361.8 -104.71262 A 361.8 152.67422 360 0 1 -349.47196 -65.19762" />
    <path d="M -313.24975 -69.29329 A 324.3 136.84977 360 0 1 -324.25336 -102.3917" />
    <path d="M 259.01321 1.30483 L 251.23504 4.5871" />
    <path d="M 5.5 47.53961 L -5.5 47.53961" />
    <path d="M -5.5 32.11747 A 324.3 136.84977 360 0 1 -225.39266 -6.318" />
    <path d="M -259.01321 -22.36317 A 324.3 136.84977 360 0 1 -313.24975 -69.29329" />
    <path d="M -259.01321 329.49503 L -251.23504 332.7773" />
    <path d="M -5.5 375.72981 L 5.5 375.72981" />
    <path d="M -264.81149 -332.50428 A 374.5 158.03343 360 0 1 374.5 -220.75777 L 374.5 -210.78514" />
    <path d="M 374.5 -220.75777 A 374.5 158.03343 360 0 1 -374.5 -220.75777 L -374.5 -210.78514" />
    <path d="M -374.5 -220.75777 A 374.5 158.03343 360 0 1 -264.81149 -332.50428" />
    <path d="M -347.98 -220.75777 A 347.98 146.84238 180 0 0 347.98 -220.75777" />
    <path d="M -246.05902 -326.40422 A 347.98 146.84238 360 0 1 347.98 -222.57098 L 347.98 -220.75777" />
    <path d="M 347.98 -222.57098 A 347.98 146.84238 360 0 1 -347.98 -222.57098 L -347.98 -220.75777" />
    <path d="M -347.98 -222.57098 A 347.98 146.84238 360 0 1 -246.05902 -326.40422" />
    <path d="M 320.5 -222.57098 A 320.5 135.24623 360 0 1 -320.5 -222.57098" />
    <path d="M -226.62772 -319.11111 A 320.5 135.24623 360 0 1 320.5 -223.47758 L 320.5 -222.57098" />
    <path d="M 320.5 -223.47758 A 320.5 135.24623 360 0 1 -320.5 -223.47758 L -320.5 -222.57098" />
    <path d="M -320.5 -223.47758 A 320.5 135.24623 360 0 1 -226.62772 -319.11111" />
    <path d="M -156 -43.68463 L -156 15.26369" />
    <path d="M -156 43.01294 L -156 152.1607" />
    <path d="M -156 179.90996 L -156 200.81251" />
    <path d="M 156 -43.68463 L 156 15.26369" />
    <path d="M 156 43.01294 L 156 152.1607" />
    <path d="M 156 179.90996 L 156 200.81251" />
</svg>