<svg version="1.1" xmlns="http://www.w3.org/2000/svg" viewBox="-376.0000009999999 -381.05137732009985 752.000002 712.3080295170583" fill="none" stroke="black" stroke-width="0.6%" vector-effect="non-scaling-stroke">
    <path d="M 15.1738 -50.34607 A 95 39.97556 360 0 1 -15.1738 -50.34607" />
    <path d="M 144.0165 -64.57736 A 156 65.64407 360 0 1 -144.0165 -64.57736" />
    <path d="M -156 200.48139 A 156 65.64407 180 0 0 156 200.48139" />
    <path d="M -265.16504 -333.83334 A 375 157.79826 360 0 1 375 -222.25312 A 375 157.79826 360 0 1 -375 -222.25312 A 375 157.79826 360 0 1 -265.16504 -333.83334 Z" />
    <path d="M -375 -211.36725 A 375 157.79826 180 0 0 375 -211.36725" />
    <path d="M 347.98 -222.25312 A 347.98 146.42836 360 0 1 -347.98 -222.25312" />
    <path d="M -246.05902 -326.70077 A 347.98 146.42836 360 0 1 347.98 -223.16028 A 347.98 146.42836 360 0 1 -347.98 -223.16028 A 347.98 146.42836 360 0 1 -246.05902 -326.70077 Z" />
    <path d="M -169.69602 -70.65021 A 320.5 134.86491 180 0 0 169.69602 -70.65021" />
    <path d="M -256.18479 59.11526 A 362.3 152.45415 360 0 1 -186.78923 36.28622" />
    <path d="M 186.78923 36.28622 A 362.3 152.45415 360 0 1 301.07908 82.11548" />
    <path d="M 330.355 104.32289 A 362.3 152.45415 360 0 1 362.3 166.91663 A 362.3 152.45415 360 0 1 -362.3 166.91663 A 362.3 152.45415 360 0 1 -330.355 104.32289" />
    <path d="M -301.07908 82.11548 A 362.3 152.45415 360 0 1 -256.18479 59.11526" />
    <path d="M -362.3 177.8025 A 362.3 152.45415 180 0 0 362.3 177.8025" />
    <path d="M -324.54234 172.35956 A 324.8 136.67433 360 0 1 -301.07908 126.53031" />
    <path d="M -273.86608 104.32289 A 324.8 136.67433 360 0 1 -156 57.92453" />
    <path d="M 156 57.92453 A 324.8 136.67433 360 0 1 273.86608 104.32289" />
    <path d="M 301.07908 126.53031 A 324.8 136.67433 360 0 1 324.54234 172.35956" />
    <path d="M 229.66828 263.55997 A 324.8 136.67433 180 0 0 324.8 166.91663 A 324.8 136.67433 180 0 0 307.20683 122.54515" />
    <path d="M 281.69614 98.87996 A 324.8 136.67433 180 0 0 156 47.03866" />
    <path d="M -156 47.03866 A 324.8 136.67433 180 0 0 -281.69614 98.87996" />
    <path d="M -307.20683 122.54515 A 324.8 136.67433 180 0 0 -324.8 166.91663 A 324.8 136.67433 180 0 0 229.66828 263.55997" />
    <path d="M -256.18479 -76.95808 A 362.3 152.45415 360 0 1 -230.32073 -86.8393" />
    <path d="M 230.32073 -86.8393 A 362.3 152.45415 360 0 1 301.07908 -53.95786" />
    <path d="M 330.355 -31.75045 A 362.3 152.45415 360 0 1 362.3 30.84329 L 362.3 41.72916" />
    <path d="M 362.3 30.84329 A 362.3 152.45415 360 0 1 -362.3 30.84329 L -362.3 41.72916 A 362.3 152.45415 180 0 0 362.3 41.72916" />
    <path d="M -362.3 30.84329 A 362.3 152.45415 360 0 1 -330.355 -31.75045" />
    <path d="M -301.07908 -53.95786 A 362.3 152.45415 360 0 1 -256.18479 -76.95808" />
    <path d="M -324.54234 36.28622 A 324.8 136.67433 360 0 1 -301.07908 -9.54303" />
    <path d="M -273.86608 -31.75045 A 324.8 136.67433 360 0 1 -178.22792 -72.53042" />
    <path d="M 178.22792 -72.53042 A 324.8 136.67433 360 0 1 273.86608 -31.75045" />
    <path d="M 301.07908 -9.54303 A 324.8 136.67433 360 0 1 324.54234 36.28622" />
    <path d="M 229.66828 127.48663 A 324.8 136.67433 180 0 0 324.8 30.84329 A 324.8 136.67433 180 0 0 307.20683 -13.52819" />
    <path d="M 281.69614 -37.19338 A 324.8 136.67433 180 0 0 198.2409 -77.42105" />
    <path d="M -198.2409 -77.42105 A 324.8 136.67433 180 0 0 -281.69614 -37.19338" />
    <path d="M -307.20683 -13.52819 A 324.8 136.67433 180 0 0 -324.8 30.84329 A 324.8 136.67433 180 0 0 229.66828 127.48663" />
    <path d="M 345.96764 -150.48791 A 362.3 152.45415 360 0 1 362.3 -105.23005 L 362.3 -94.34418" />
    <path d="M 362.3 -105.23005 A 362.3 152.45415 360 0 1 -362.3 -105.23005 L -362.3 -94.34418 A 362.3 152.45415 180 0 0 362.3 -94.34418" />
    <path d="M -362.3 -105.23005 A 362.3 152.45415 360 0 1 -345.96764 -150.48791" />
    <path d="M -324.54234 -99.78712 A 324.8 136.67433 360 0 1 -315.80988 -126.27798" />
    <path d="M 315.80988 -126.27798 A 324.8 136.67433 360 0 1 324.54234 -99.78712" />
    <path d="M 229.66828 -8.5867 A 324.8 136.67433 180 0 0 324.8 -105.23005 A 324.8 136.67433 180 0 0 319.85227 -128.99499" />
    <path d="M -319.85227 -128.99499 A 324.8 136.67433 180 0 0 -324.8 -105.23005 A 324.8 136.67433 180 0 0 229.66828 -8.5867" />
    <path d="M -156 -67.24888 L -156 14.64792" />
    <path d="M -156 43.25351 L -156 150.72126" />
    <path d="M -156 179.32685 L -156 200.48139" />
    <path d="M 156 -67.24888 L 156 14.64792" />
    <path d="M 156 43.25351 L 156 150.72126" />
    <path d="M 156 179.32685 L 156 200.48139" />
    <path d="M -375 -222.25312 L -375 -211.36725" />
    <path d="M 375 -222.25312 L 375 -211.36725" />
    <path d="M -347.98 -223.16028 L -347.98 -222.25312" />
    <path d="M 347.98 -223.16028 L 347.98 -222.25312" />
    <path d="M -362.3 166.91663 L -362.3 177.8025" />
    <path d="M 362.3 166.91663 L 362.3 177.8025" />
</svg>