<svg version="1.1" xmlns="http://www.w3.org/2000/svg" viewBox="-375.5000010000001 -386.12676654151574 751.0000020000002 764.1531552004259" fill="none" stroke="black" stroke-width="0.6%" vector-effect="non-scaling-stroke">
    <path d="M 48.02416 -29.8219 A 156 66.92102 360 0 1 6 -26.62145" />
    <path d="M -6 -26.62145 A 156 66.92102 360 0 1 -48.02416 -29.8219" />
    <path d="M -300.16701 -117.56682 A 320.5 137.48838 180 0 0 -259.36677 -84.98978" />
    <path d="M -222.34537 -66.7361 A 320.5 137.48838 180 0 0 -6 -28.29376" />
    <path d="M 6 -28.29376 A 320.5 137.48838 180 0 0 222.34537 -66.7361" />
    <path d="M 259.36677 -84.98978 A 320.5 137.48838 180 0 0 300.16701 -117.56682" />
    <path d="M -156 195.56739 A 156 66.92102 180 0 0 -6 262.43889" />
    <path d="M 6 262.43889 A 156 66.92102 180 0 0 156 195.56739" />
    <path d="M -285.8 220.72411 L -285.8 132.6571" />
    <path d="M -285.8 92.39367 L -285.8 -3.74325" />
    <path d="M -285.8 -44.00667 L -285.8 -103.53568" />
    <path d="M -360.8 220.72411 L -349.3 220.72411" />
    <path d="M -296.3 211.69097 L -303.03603 211.69097" />
    <path d="M -294.14847 220.72411 L -285.8 220.72411" />
    <path d="M -360.8 -107.17871 L -360.8 -170.57797" />
    <path d="M -324.24449 -107.17871 L -360.8 -107.17871" />
    <path d="M -360.8 29.22164 L -360.8 -87.38131" />
    <path d="M -324.24449 29.22164 L -360.8 29.22164" />
    <path d="M -360.8 164.71867 L -360.8 49.01904" />
    <path d="M -324.24449 164.71867 L -360.8 164.71867" />
    <path d="M -360.8 220.72411 L -360.8 184.51608" />
    <path d="M -259.36677 325.77359 L -259.36677 281.19333" />
    <path d="M -259.36677 269.76815 L -259.36677 145.69629" />
    <path d="M -259.36677 134.27111 L -259.36677 9.29594" />
    <path d="M -259.36677 -2.12923 L -259.36677 -97.74597" />
    <path d="M -197.84848 306.66347 L -197.84848 302.92768" />
    <path d="M -197.84848 272.37407 L -197.84848 167.43065" />
    <path d="M -197.84848 136.87704 L -197.84848 31.0303" />
    <path d="M -197.84848 0.47669 L -197.84848 -57.59339" />
    <path d="M -250.88149 329.41361 L -242.74976 325.92526 L -242.74976 316.89212 L -238.50712 318.71213 L -238.36582 318.76557 A 1.5 0.64347 180 0 0 -236.3858 318.71213 L -201.03046 303.54537 A 1.5 0.64347 180 0 0 -200.59112 303.09037 L -200.59112 321.15664" />
    <path d="M -205.2731 300.81535 L -242.74976 316.89212" />
    <path d="M -200.59112 307.84001 L -197.84848 306.66347" />
    <path d="M -222.34537 -84.35958 L -222.34537 -66.7361" />
    <path d="M -250.88149 1.51079 L -250.88149 -94.35789" />
    <path d="M -225.03284 -9.57779 L -250.88149 1.51079 L -259.36677 -2.12923" />
    <path d="M -250.88149 137.91114 L -250.88149 12.91691" />
    <path d="M -225.03284 126.82256 L -250.88149 137.91114 L -259.36677 134.27111" />
    <path d="M -250.88149 273.40817 L -250.88149 149.31726" />
    <path d="M -225.03284 262.3196 L -250.88149 273.40817 L -259.36677 269.76815" />
    <path d="M -250.88149 329.41361 L -250.88149 284.8143" />
    <path d="M -6 372.92653 L -6 328.16849" />
    <path d="M -6 316.92109 L -6 192.67146" />
    <path d="M -6 181.42406 L -6 56.27111" />
    <path d="M -6 45.02371 L -6 -53.00093" />
    <path d="M 6 45.02371 L 6 -53.00093" />
    <path d="M 6 181.42406 L 6 56.27111" />
    <path d="M 6 316.92109 L 6 192.67146" />
    <path d="M 6 372.92653 L 6 328.16849" />
    <path d="M 222.34537 -84.35958 L 222.34537 -66.7361" />
    <path d="M 197.84848 306.66347 L 200.59112 307.84001" />
    <path d="M 242.74976 316.89212 L 205.2731 300.81535 L 201.03046 302.63536 L 200.90589 302.69598 A 1.5 0.64347 180 0 0 200.59112 303.09037 L 200.59112 321.15664 A 1.5 0.64347 180 0 0 201.03046 321.61164 L 201.03046 303.54537 L 236.3858 318.71213 A 1.5 0.64347 180 0 0 238.43842 318.73981 L 238.50712 318.71213 L 242.74976 316.89212 L 242.74976 325.92526 L 250.88149 329.41361 L 250.88149 284.8143" />
    <path d="M 250.88149 273.40817 L 225.03284 262.3196 A 324.3 139.1185 0 0 1 6 301.23948" />
    <path d="M 250.88149 273.40817 L 250.88149 149.31726" />
    <path d="M 250.88149 137.91114 L 225.03284 126.82256 A 324.3 139.1185 0 0 1 6 165.74244" />
    <path d="M 250.88149 137.91114 L 250.88149 12.91691" />
    <path d="M 250.88149 1.51079 L 225.03284 -9.57779 A 324.3 139.1185 0 0 1 6 29.34209" />
    <path d="M 250.88149 1.51079 L 250.88149 -94.35789" />
    <path d="M 197.84848 306.66347 L 197.84848 302.92768" />
    <path d="M 197.84848 272.37407 L 197.84848 167.43065" />
    <path d="M 197.84848 136.87704 L 197.84848 31.0303" />
    <path d="M 197.84848 0.47669 L 197.84848 -57.59339" />
    <path d="M 259.36677 -2.12923 L 259.36677 -97.74597" />
    <path d="M 259.36677 134.27111 L 259.36677 9.29594" />
    <path d="M 259.36677 269.76815 L 259.36677 145.69629" />
    <path d="M 259.36677 325.77359 L 259.36677 281.19333" />
    <path d="M 285.8 220.72411 L 294.14847 220.72411" />
    <path d="M 303.03603 211.69097 L 296.3 211.69097 L 296.3 214.26486 L 296.31183 214.34551 A 1.5 0.64347 180 0 0 297.8 214.90833 L 300.0702 214.90833" />
    <path d="M 349.3 220.72411 L 360.8 220.72411 L 360.8 184.51608" />
    <path d="M 360.8 164.71867 L 324.24449 164.71867 A 324.3 139.1185 0 0 1 259.36677 245.65776" />
    <path d="M 360.8 164.71867 L 360.8 49.01904" />
    <path d="M 360.8 29.22164 L 324.24449 29.22164 A 324.3 139.1185 0 0 1 259.36677 110.16072" />
    <path d="M 360.8 29.22164 L 360.8 -87.38131" />
    <path d="M 360.8 -107.17871 L 324.24449 -107.17871 A 324.3 139.1185 0 0 1 259.36677 -26.23962" />
    <path d="M 360.8 -107.17871 L 360.8 -170.57797" />
    <path d="M 285.8 220.72411 L 285.8 132.6571" />
    <path d="M 285.8 92.39367 L 285.8 -3.74325" />
    <path d="M 285.8 -44.00667 L 285.8 -103.53568" />
    <path d="M -374.5 -213.63366 A 374.5 160.65335 180 0 0 374.5 -213.63366" />
    <path d="M -296.3 214.26486 L -296.3 211.69097" />
    <path d="M -296.3 218.69351 L -296.3 214.26486" />
    <path d="M -349.3 232.33113 L -349.3 214.26486 L -349.28817 214.34551 A 1.5 0.64347 180 0 0 -348.38405 214.85755" />
    <path d="M -349.3 213.42894 L -349.3 214.26486" />
    <path d="M -349.47196 213.15463 A 361.8 155.20529 180 0 0 361.8 172.98455" />
    <path d="M -361.8 172.98455 A 361.8 155.20529 180 0 0 -349.47196 213.15463" />
    <path d="M -259.36677 89.47157 A 324.3 139.1185 180 0 0 -275.82358 99.81615" />
    <path d="M -156 51.01924 A 324.3 139.1185 180 0 0 -197.84848 62.75526" />
    <path d="M 197.84848 62.75526 A 324.3 139.1185 180 0 0 156 51.01924" />
    <path d="M 275.82358 99.81615 A 324.3 139.1185 180 0 0 259.36677 89.47157" />
    <path d="M -283.24711 94.39627 A 324.3 139.1185 0 0 1 -259.36677 78.63181" />
    <path d="M -349.47196 202.31487 A 361.8 155.20529 0 0 1 -361.8 162.14478 L -361.8 172.98455" />
    <path d="M -361.8 162.14478 A 361.8 155.20529 0 0 1 -360.8 150.61325" />
    <path d="M -285.8 66.9752 A 361.8 155.20529 0 0 1 -259.36677 53.93601" />
    <path d="M -197.84848 32.20165 A 361.8 155.20529 0 0 1 -195.74229 31.61597" />
    <path d="M 195.74229 31.61597 A 361.8 155.20529 0 0 1 197.84848 32.20165" />
    <path d="M 259.36677 53.93601 A 361.8 155.20529 0 0 1 285.8 66.9752" />
    <path d="M 360.8 150.61325 A 361.8 155.20529 0 0 1 361.8 162.14478 L 361.8 172.98455" />
    <path d="M 361.8 162.14478 A 361.8 155.20529 0 0 1 -349.47196 202.31487" />
    <path d="M -313.24975 198.1513 A 324.3 139.1185 0 0 1 -324.24449 164.71867" />
    <path d="M -197.84848 51.9155 A 324.3 139.1185 0 0 1 -158.1259 40.68432" />
    <path d="M 158.1259 40.68432 A 324.3 139.1185 0 0 1 197.84848 51.9155" />
    <path d="M 259.36677 78.63181 A 324.3 139.1185 0 0 1 283.24711 94.39627" />
    <path d="M 259.36677 269.76815 L 250.88149 273.40817" />
    <path d="M 6 316.92109 L -6 316.92109" />
    <path d="M -6 301.23948 A 324.3 139.1185 0 0 1 -225.03284 262.3196" />
    <path d="M -259.36677 245.65776 A 324.3 139.1185 0 0 1 -313.24975 198.1513" />
    <path d="M -349.47196 77.6576 A 361.8 155.20529 180 0 0 361.8 37.48751" />
    <path d="M -361.8 37.48751 A 361.8 155.20529 180 0 0 -349.47196 77.6576" />
    <path d="M -259.36677 -46.02546 A 324.3 139.1185 180 0 0 -275.16973 -36.13254" />
    <path d="M 275.16973 -36.13254 A 324.3 139.1185 180 0 0 259.36677 -46.02546" />
    <path d="M -282.6575 -41.55242 A 324.3 139.1185 0 0 1 -259.36677 -56.86522" />
    <path d="M -349.47196 66.81783 A 361.8 155.20529 0 0 1 -361.8 26.64775 L -361.8 37.48751" />
    <path d="M -361.8 26.64775 A 361.8 155.20529 0 0 1 -360.8 15.11622" />
    <path d="M -285.8 -68.52183 A 361.8 155.20529 0 0 1 -259.36677 -81.56103" />
    <path d="M 259.36677 -81.56103 A 361.8 155.20529 0 0 1 285.8 -68.52183" />
    <path d="M 360.8 15.11622 A 361.8 155.20529 0 0 1 361.8 26.64775 L 361.8 37.48751" />
    <path d="M 361.8 26.64775 A 361.8 155.20529 0 0 1 -349.47196 66.81783" />
    <path d="M -313.24975 62.65427 A 324.3 139.1185 0 0 1 -324.24449 29.22164" />
    <path d="M 259.36677 -56.86522 A 324.3 139.1185 0 0 1 282.6575 -41.55242" />
    <path d="M 259.36677 134.27111 L 250.88149 137.91114" />
    <path d="M 6 181.42406 L -6 181.42406" />
    <path d="M -6 165.74244 A 324.3 139.1185 0 0 1 -225.03284 126.82256" />
    <path d="M -259.36677 110.16072 A 324.3 139.1185 0 0 1 -313.24975 62.65427" />
    <path d="M -349.47196 -58.74275 A 361.8 155.20529 180 0 0 361.8 -98.91284" />
    <path d="M -361.8 -98.91284 A 361.8 155.20529 180 0 0 -349.47196 -58.74275" />
    <path d="M -349.47196 -69.58251 A 361.8 155.20529 0 0 1 -361.8 -109.7526 L -361.8 -98.91284" />
    <path d="M -361.8 -109.7526 A 361.8 155.20529 0 0 1 -360.8 -121.28413" />
    <path d="M 360.8 -121.28413 A 361.8 155.20529 0 0 1 361.8 -109.7526 L 361.8 -98.91284" />
    <path d="M 361.8 -109.7526 A 361.8 155.20529 0 0 1 -349.47196 -69.58251" />
    <path d="M -313.24975 -73.74608 A 324.3 139.1185 0 0 1 -324.24449 -107.17871" />
    <path d="M 259.36677 -2.12923 L 250.88149 1.51079" />
    <path d="M 6 45.02371 L -6 45.02371" />
    <path d="M -6 29.34209 A 324.3 139.1185 0 0 1 -225.03284 -9.57779" />
    <path d="M -259.36677 -26.23962 A 324.3 139.1185 0 0 1 -313.24975 -73.74608" />
    <path d="M -296.30296 214.30526 L -296.3 214.26486" />
    <path d="M -297.8 214.90833 A 1.5 0.64347 180 0 0 -296.30296 214.30526" />
    <path d="M -300.0702 214.90833 L -297.8 214.90833" />
    <path d="M -201.03046 302.63536 L -205.2731 300.81535" />
    <path d="M -255.47768 329.49836 L -238.50712 336.7784 L -238.36582 336.83184 L -238.36582 318.76557" />
    <path d="M -238.50712 336.7784 L -238.50712 318.71213" />
    <path d="M -255.47768 329.49836 L -255.47768 327.44193" />
    <path d="M -259.36677 325.77359 L -250.88149 329.41361" />
    <path d="M -200.96595 302.66483 L -201.03046 302.63536" />
    <path d="M -200.59112 303.09037 A 1.5 0.64347 180 0 0 -200.96595 302.66483" />
    <path d="M -6 336.22413 L -12 336.22413 L -12.188 336.2292 A 1.5 0.64347 180 0 0 -13.5 336.8676 L -13.5 358.31665 A 1.5 0.64347 180 0 0 -12.09419 358.95885 L -12 358.96012 L -6 358.96012" />
    <path d="M 12 336.22413 L 6 336.22413" />
    <path d="M -12 377.02639 L 12 377.02639 L 12.188 377.02131 L 12.188 358.95504 A 1.5 0.64347 180 0 0 13.5 358.31665 L 13.5 336.8676 A 1.5 0.64347 180 0 0 12.09419 336.2254 L 12 336.22413" />
    <path d="M 12 377.02639 L 12 358.96012 L 12.188 358.95504" />
    <path d="M 6 358.96012 L 12 358.96012" />
    <path d="M -12 377.02639 L -12 358.96012" />
    <path d="M -6 372.92653 L 6 372.92653" />
    <path d="M 200.59112 303.09037 A 1.5 0.64347 180 0 0 201.03046 303.54537" />
    <path d="M 238.50712 336.7784 L 255.47768 329.49836 L 255.60225 329.43774 L 255.60225 327.38849" />
    <path d="M 255.47768 329.49836 L 255.47768 327.44193" />
    <path d="M 238.50712 336.7784 L 238.50712 318.71213" />
    <path d="M 250.88149 329.41361 L 259.36677 325.77359" />
    <path d="M 296.3 218.69351 L 296.3 214.26486" />
    <path d="M 349.3 214.26486 L 349.3 213.42894" />
    <path d="M 349.29704 214.30526 L 349.3 214.26486" />
    <path d="M 348.38405 214.85755 A 1.5 0.64347 180 0 0 349.29704 214.30526" />
    <path d="M 349.3 232.33113 L 349.3 214.26486" />
    <path d="M -264.81149 -338.07249 A 374.5 160.65335 360 0 1 374.5 -224.47342 L 374.5 -213.63366" />
    <path d="M 374.5 -224.47342 A 374.5 160.65335 360 0 1 -374.5 -224.47342 L -374.5 -213.63366" />
    <path d="M -374.5 -224.47342 A 374.5 160.65335 360 0 1 -264.81149 -338.07249" />
    <path d="M -349.3 232.33113 L -349.28817 232.41178 L -349.28817 214.34551" />
    <path d="M -349.28817 232.41178 A 1.5 0.64347 180 0 0 -347.8 232.9746 L -347.8 215.7417" />
    <path d="M -347.8 232.9746 L -333.68117 232.9746" />
    <path d="M -296.30296 218.69066 L -296.30296 214.30526" />
    <path d="M -255.91702 329.04335 A 1.5 0.64347 180 0 0 -255.54219 329.46889 L -255.54219 327.41426" />
    <path d="M -255.54219 329.46889 L -255.47768 329.49836" />
    <path d="M -238.36582 336.83184 A 1.5 0.64347 180 0 0 -236.3858 336.7784 L -236.3858 318.71213" />
    <path d="M -236.3858 336.7784 L -201.03046 321.61164 L -201.03046 303.54537" />
    <path d="M -201.03046 321.61164 A 1.5 0.64347 180 0 0 -200.59112 321.15664" />
    <path d="M -13.5 376.38292 A 1.5 0.64347 180 0 0 -12.09419 377.02512 L -12.09419 358.95885" />
    <path d="M -12.09419 377.02512 L -12 377.02639" />
    <path d="M 12.188 377.02131 A 1.5 0.64347 180 0 0 13.5 376.38292 L 13.5 358.31665" />
    <path d="M 13.5 354.93387 A 1.5 0.64347 180 0 0 13.31637 354.62537 A 1.5 0.64347 180 1 0 13.5 354.93387 Z" />
    <path d="M -13.5 376.38292 L -13.5 358.31665" />
    <path d="M 201.03046 321.61164 L 236.3858 336.7784 L 236.3858 318.71213" />
    <path d="M 236.3858 336.7784 A 1.5 0.64347 180 0 0 238.43842 336.80608 L 238.43842 318.73981" />
    <path d="M 238.43842 336.80608 L 238.50712 336.7784" />
    <path d="M 255.60225 329.43774 A 1.5 0.64347 180 0 0 255.91702 329.04335" />
    <path d="M 200.90589 320.76225 A 1.5 0.64347 180 0 0 200.59112 321.15664" />
    <path d="M 333.68117 232.9746 L 347.8 232.9746 L 347.8 215.7417" />
    <path d="M 347.8 232.9746 A 1.5 0.64347 180 0 0 349.29704 232.37154 L 349.29704 214.30526" />
    <path d="M 349.29704 232.37154 L 349.3 232.33113" />
    <path d="M 296.31183 218.68211 L 296.31183 214.34551" />
    <path d="M -347.98 -224.47342 A 347.98 149.27677 180 0 0 347.98 -224.47342" />
    <path d="M -246.05902 -331.83467 A 347.98 149.27677 360 0 1 347.98 -226.28005 L 347.98 -224.47342" />
    <path d="M 347.98 -226.28005 A 347.98 149.27677 360 0 1 -347.98 -226.28005 L -347.98 -224.47342" />
    <path d="M -347.98 -226.28005 A 347.98 149.27677 360 0 1 -246.05902 -331.83467" />
    <path d="M 320.5 -226.28005 A 320.5 137.48838 360 0 1 -320.5 -226.28005" />
    <path d="M -226.62772 -324.40232 A 320.5 137.48838 360 0 1 320.5 -227.18336 L 320.5 -226.28005" />
    <path d="M 320.5 -227.18336 A 320.5 137.48838 360 0 1 -320.5 -227.18336 L -320.5 -226.28005" />
    <path d="M -320.5 -227.18336 A 320.5 137.48838 360 0 1 -226.62772 -324.40232" />
    <path d="M -297.8 217.22441 L -297.8 214.90833" />
    <path d="M 297.8 217.22441 L 297.8 214.90833" />
    <path d="M -156 -45.65545 L -156 12.21271" />
    <path d="M -156 41.1238 L -156 148.61305" />
    <path d="M -156 177.52415 L -156 195.56739" />
    <path d="M 156 -45.65545 L 156 12.21271" />
    <path d="M 156 41.1238 L 156 148.61305" />
    <path d="M 156 177.52415 L 156 195.56739" />
    <path d="M -255.91702 327.25347 L -255.91702 329.04335" />
    <path d="M 255.91702 327.25347 L 255.91702 329.04335" />
</svg>