<svg version="1.1" xmlns="http://www.w3.org/2000/svg" viewBox="-351.000001 -376.16863235670223 702.000002 644.5036488108967" fill="none" stroke="black" stroke-width="0.6%" vector-effect="non-scaling-stroke">
    <path d="M 134.00121 -53.10639 A 156 69.42932 360 0 1 -134.00121 -53.10639" />
    <path d="M -156 197.90569 A 156 69.42932 180 0 0 156 197.90569" />
    <path d="M -247.48737 -329.54439 A 350 155.77092 360 0 1 350 -219.39771 A 350 155.77092 360 0 1 -350 -219.39771 A 350 155.77092 360 0 1 -247.48737 -329.54439 Z" />
    <path d="M -350 -208.6517 A 350 155.77092 180 0 0 350 -208.6517" />
    <path d="M 347.98 -219.39771 A 347.98 154.8719 360 0 1 -347.98 -219.39771" />
    <path d="M -246.05902 -329.80418 A 347.98 154.8719 360 0 1 347.98 -220.29321 L 347.98 -219.39771" />
    <path d="M 347.98 -220.29321 A 347.98 154.8719 360 0 1 -347.98 -220.29321 L -347.98 -219.39771" />
    <path d="M -347.98 -220.29321 A 347.98 154.8719 360 0 1 -246.05902 -329.80418" />
    <path d="M -288.15261 -120.23358 A 320.5 142.64166 180 0 0 288.15261 -120.23358" />
    <path d="M -156 -58.07796 L -156 197.90569" />
    <path d="M 156 -58.07796 L 156 197.90569" />
    <path d="M -350 -219.39771 L -350 -208.6517" />
    <path d="M 350 -219.39771 L 350 -208.6517" />
</svg>