<svg version="1.1" xmlns="http://www.w3.org/2000/svg" viewBox="-375.50000100000005 -379.79119928720576 751.0000020000001 756.5210107245687" fill="none" stroke="black" stroke-width="0.6%" vector-effect="non-scaling-stroke">
    <path d="M 64.38959 -29.33989 A 156 65.82968 360 0 1 6 -23.5194" />
    <path d="M -6 -23.5194 A 156 65.82968 360 0 1 -64.38959 -29.33989" />
    <path d="M -301.80353 -116.31112 A 320.5 135.24623 180 0 0 -259.36677 -82.37749" />
    <path d="M -222.34537 -64.42149 A 320.5 135.24623 180 0 0 -6 -26.60606" />
    <path d="M 6 -26.60606 A 320.5 135.24623 180 0 0 222.34537 -64.42149" />
    <path d="M 259.36677 -82.37749 A 320.5 135.24623 180 0 0 301.80353 -116.31112" />
    <path d="M -156 200.81251 A 156 65.82968 180 0 0 -6 266.59348" />
    <path d="M 6 266.59348 A 156 65.82968 180 0 0 156 200.81251" />
    <path d="M -285.8 226.00949 L -285.8 135.7746" />
    <path d="M -285.8 95.95154 L -285.8 -1.12242" />
    <path d="M -285.8 -40.94548 L -285.8 -100.62095" />
    <path d="M -360.8 226.00949 L -343.56204 226.00949" />
    <path d="M -292.9048 226.00949 L -285.8 226.00949" />
    <path d="M -360.8 -103.08731 L -360.8 -167.525" />
    <path d="M -324.24449 -103.08731 L -360.8 -103.08731" />
    <path d="M -360.8 33.80971 L -360.8 -83.39651" />
    <path d="M -324.24449 33.80971 L -360.8 33.80971" />
    <path d="M -360.8 169.80012 L -360.8 53.5005" />
    <path d="M -324.24449 169.80012 L -360.8 169.80012" />
    <path d="M -360.8 226.00949 L -360.8 189.49092" />
    <path d="M -259.36677 329.34583 L -259.36677 284.59156" />
    <path d="M -259.36677 273.13646 L -259.36677 148.60115" />
    <path d="M -259.36677 137.14605 L -259.36677 11.70413" />
    <path d="M -259.36677 0.24903 L -259.36677 -95.88074" />
    <path d="M -197.84848 310.54736 L -197.84848 305.97148" />
    <path d="M -197.84848 275.69989 L -197.84848 169.98106" />
    <path d="M -197.84848 139.70947 L -197.84848 33.08405" />
    <path d="M -197.84848 2.81246 L -197.84848 -55.42788" />
    <path d="M -250.88149 332.9265 L -197.84848 310.54736" />
    <path d="M -222.34537 -82.71265 L -222.34537 -64.42149" />
    <path d="M -250.88149 3.82969 L -250.88149 -92.54791" />
    <path d="M -225.03284 -7.07805 L -250.88149 3.82969 L -259.36677 0.24903" />
    <path d="M -250.88149 140.72671 L -250.88149 15.26605" />
    <path d="M -225.03284 129.81897 L -250.88149 140.72671 L -259.36677 137.14605" />
    <path d="M -250.88149 276.71712 L -250.88149 152.16307" />
    <path d="M -225.03284 265.80938 L -250.88149 276.71712 L -259.36677 273.13646" />
    <path d="M -250.88149 332.9265 L -250.88149 288.15348" />
    <path d="M -6 375.72981 L -6 330.80066" />
    <path d="M -6 319.52044 L -6 194.81025" />
    <path d="M -6 183.53003 L -6 57.91323" />
    <path d="M -6 46.63301 L -6 -51.8654" />
    <path d="M 6 46.63301 L 6 -51.8654" />
    <path d="M 6 183.53003 L 6 57.91323" />
    <path d="M 6 319.52044 L 6 194.81025" />
    <path d="M 6 375.72981 L 6 330.80066" />
    <path d="M 222.34537 -82.71265 L 222.34537 -64.42149" />
    <path d="M 197.84848 310.54736 L 250.88149 332.9265 L 259.36677 329.34583 L 259.36677 284.59156" />
    <path d="M 250.88149 332.9265 L 250.88149 288.15348" />
    <path d="M 250.88149 276.71712 L 225.03284 265.80938 A 324.3 136.84977 360 0 1 6 304.09456" />
    <path d="M 250.88149 276.71712 L 250.88149 152.16307" />
    <path d="M 250.88149 140.72671 L 225.03284 129.81897 A 324.3 136.84977 360 0 1 6 168.10415" />
    <path d="M 250.88149 140.72671 L 250.88149 15.26605" />
    <path d="M 250.88149 3.82969 L 225.03284 -7.07805 A 324.3 136.84977 360 0 1 6 31.20713" />
    <path d="M 250.88149 3.82969 L 250.88149 -92.54791" />
    <path d="M 197.84848 310.54736 L 197.84848 305.97148" />
    <path d="M 197.84848 275.69989 L 197.84848 169.98106" />
    <path d="M 197.84848 139.70947 L 197.84848 33.08405" />
    <path d="M 197.84848 2.81246 L 197.84848 -55.42788" />
    <path d="M 259.36677 0.24903 L 259.36677 -95.88074" />
    <path d="M 259.36677 137.14605 L 259.36677 11.70413" />
    <path d="M 259.36677 273.13646 L 259.36677 148.60115" />
    <path d="M 285.8 226.00949 L 292.9048 226.00949" />
    <path d="M 343.56204 226.00949 L 360.8 226.00949 L 360.8 189.49092" />
    <path d="M 360.8 169.80012 L 324.24449 169.80012 A 324.3 136.84977 360 0 1 259.36677 249.41926" />
    <path d="M 360.8 169.80012 L 360.8 53.5005" />
    <path d="M 360.8 33.80971 L 324.24449 33.80971 A 324.3 136.84977 360 0 1 259.36677 113.42885" />
    <path d="M 360.8 33.80971 L 360.8 -83.39651" />
    <path d="M 360.8 -103.08731 L 324.24449 -103.08731 A 324.3 136.84977 360 0 1 259.36677 -23.46817" />
    <path d="M 360.8 -103.08731 L 360.8 -167.525" />
    <path d="M 285.8 226.00949 L 285.8 135.7746" />
    <path d="M 285.8 95.95154 L 285.8 -1.12242" />
    <path d="M 285.8 -40.94548 L 285.8 -100.62095" />
    <path d="M -374.5 -209.87854 A 374.5 158.03343 180 0 0 374.5 -209.87854" />
    <path d="M -349.47196 217.66244 A 361.8 152.67422 180 0 0 361.8 178.14744" />
    <path d="M -361.8 178.14744 A 361.8 152.67422 180 0 0 -349.47196 217.66244" />
    <path d="M -259.36677 95.99639 A 324.3 136.84977 180 0 0 -273.65439 104.71262" />
    <path d="M -156 58.17114 A 324.3 136.84977 180 0 0 -197.84848 69.71576" />
    <path d="M 197.84848 69.71576 A 324.3 136.84977 180 0 0 156 58.17114" />
    <path d="M 273.65439 104.71262 A 324.3 136.84977 180 0 0 259.36677 95.99639" />
    <path d="M -281.43746 99.273 A 324.3 136.84977 360 0 1 -259.36677 85.11716" />
    <path d="M -349.47196 206.7832 A 361.8 152.67422 360 0 1 -361.8 167.26821 L -361.8 178.14744" />
    <path d="M -361.8 167.26821 A 361.8 152.67422 360 0 1 -360.8 155.92473" />
    <path d="M -285.8 73.65064 A 361.8 152.67422 360 0 1 -259.36677 60.82409" />
    <path d="M -197.84848 39.44417 A 361.8 152.67422 360 0 1 -185.80037 36.26411" />
    <path d="M 185.80037 36.26411 A 361.8 152.67422 360 0 1 197.84848 39.44417" />
    <path d="M 259.36677 60.82409 A 361.8 152.67422 360 0 1 285.8 73.65064" />
    <path d="M 360.8 155.92473 A 361.8 152.67422 360 0 1 361.8 167.26821 L 361.8 178.14744" />
    <path d="M 361.8 167.26821 A 361.8 152.67422 360 0 1 -349.47196 206.7832" />
    <path d="M -313.24975 202.68754 A 324.3 136.84977 360 0 1 -324.24449 169.80012" />
    <path d="M -197.84848 58.83653 A 324.3 136.84977 360 0 1 -156 47.2919" />
    <path d="M 156 47.2919 A 324.3 136.84977 360 0 1 197.84848 58.83653" />
    <path d="M 259.36677 85.11716 A 324.3 136.84977 360 0 1 281.43746 99.273" />
    <path d="M 259.36677 273.13646 L 250.88149 276.71712" />
    <path d="M 6 319.52044 L -6 319.52044" />
    <path d="M -6 304.09456 A 324.3 136.84977 360 0 1 -225.03284 265.80938" />
    <path d="M -259.36677 249.41926 A 324.3 136.84977 360 0 1 -313.24975 202.68754" />
    <path d="M -349.47196 81.67202 A 361.8 152.67422 180 0 0 361.8 42.15703" />
    <path d="M -361.8 42.15703 A 361.8 152.67422 180 0 0 -349.47196 81.67202" />
    <path d="M -259.36677 -39.99402 A 324.3 136.84977 180 0 0 -272.96831 -31.7311" />
    <path d="M 272.96831 -31.7311 A 324.3 136.84977 180 0 0 259.36677 -39.99402" />
    <path d="M -280.81971 -37.17071 A 324.3 136.84977 360 0 1 -259.36677 -50.87326" />
    <path d="M -349.47196 70.79279 A 361.8 152.67422 360 0 1 -361.8 31.2778 L -361.8 42.15703" />
    <path d="M -361.8 31.2778 A 361.8 152.67422 360 0 1 -360.8 19.93432" />
    <path d="M -285.8 -62.33977 A 361.8 152.67422 360 0 1 -259.36677 -75.16633" />
    <path d="M 259.36677 -75.16633 A 361.8 152.67422 360 0 1 285.8 -62.33977" />
    <path d="M 360.8 19.93432 A 361.8 152.67422 360 0 1 361.8 31.2778 L 361.8 42.15703" />
    <path d="M 361.8 31.2778 A 361.8 152.67422 360 0 1 -349.47196 70.79279" />
    <path d="M -313.24975 66.69712 A 324.3 136.84977 360 0 1 -324.24449 33.80971" />
    <path d="M 259.36677 -50.87326 A 324.3 136.84977 360 0 1 280.81971 -37.17071" />
    <path d="M 259.36677 137.14605 L 250.88149 140.72671" />
    <path d="M 6 183.53003 L -6 183.53003" />
    <path d="M -6 168.10415 A 324.3 136.84977 360 0 1 -225.03284 129.81897" />
    <path d="M -259.36677 113.42885 A 324.3 136.84977 360 0 1 -313.24975 66.69712" />
    <path d="M -349.47196 -55.22499 A 361.8 152.67422 180 0 0 361.8 -94.73999" />
    <path d="M -361.8 -94.73999 A 361.8 152.67422 180 0 0 -349.47196 -55.22499" />
    <path d="M -349.47196 -66.10423 A 361.8 152.67422 360 0 1 -361.8 -105.61922 L -361.8 -94.73999" />
    <path d="M -361.8 -105.61922 A 361.8 152.67422 360 0 1 -360.8 -116.9627" />
    <path d="M 360.8 -116.9627 A 361.8 152.67422 360 0 1 361.8 -105.61922 L 361.8 -94.73999" />
    <path d="M 361.8 -105.61922 A 361.8 152.67422 360 0 1 -349.47196 -66.10423" />
    <path d="M -313.24975 -70.19989 A 324.3 136.84977 360 0 1 -324.24449 -103.08731" />
    <path d="M 259.36677 0.24903 L 250.88149 3.82969" />
    <path d="M 6 46.63301 L -6 46.63301" />
    <path d="M -6 31.20713 A 324.3 136.84977 360 0 1 -225.03284 -7.07805" />
    <path d="M -259.36677 -23.46817 A 324.3 136.84977 360 0 1 -313.24975 -70.19989" />
    <path d="M -259.36677 329.34583 L -250.88149 332.9265" />
    <path d="M -6 375.72981 L 6 375.72981" />
    <path d="M -264.81149 -332.50428 A 374.5 158.03343 360 0 1 374.5 -220.75777 L 374.5 -209.87854" />
    <path d="M 374.5 -220.75777 A 374.5 158.03343 360 0 1 -374.5 -220.75777 L -374.5 -209.87854" />
    <path d="M -374.5 -220.75777 A 374.5 158.03343 360 0 1 -264.81149 -332.50428" />
    <path d="M -347.98 -220.75777 A 347.98 146.84238 180 0 0 347.98 -220.75777" />
    <path d="M -246.05902 -326.40422 A 347.98 146.84238 360 0 1 347.98 -222.57098 L 347.98 -220.75777" />
    <path d="M 347.98 -222.57098 A 347.98 146.84238 360 0 1 -347.98 -222.57098 L -347.98 -220.75777" />
    <path d="M -347.98 -222.57098 A 347.98 146.84238 360 0 1 -246.05902 -326.40422" />
    <path d="M 320.5 -222.57098 A 320.5 135.24623 360 0 1 -320.5 -222.57098" />
    <path d="M -226.62772 -319.11111 A 320.5 135.24623 360 0 1 320.5 -223.47758 L 320.5 -222.57098" />
    <path d="M 320.5 -223.47758 A 320.5 135.24623 360 0 1 -320.5 -223.47758 L -320.5 -222.57098" />
    <path d="M -320.5 -223.47758 A 320.5 135.24623 360 0 1 -226.62772 -319.11111" />
    <path d="M -156 -43.68463 L -156 14.35708" />
    <path d="M -156 43.01294 L -156 151.2541" />
    <path d="M -156 179.90996 L -156 200.81251" />
    <path d="M 156 -43.68463 L 156 14.35708" />
    <path d="M 156 43.01294 L 156 151.2541" />
    <path d="M 156 179.90996 L 156 200.81251" />
</svg>