<svg version="1.1" xmlns="http://www.w3.org/2000/svg" viewBox="-376.00000100000005 -380.14415834173224 752.0000020000001 756.7585302633038" fill="none" stroke="black" stroke-width="0.6%" vector-effect="non-scaling-stroke">
    <path d="M 198.90914 310.43086 L 251.94215 332.74689 L 251.94215 -93.58043" />
    <path d="M 198.90914 310.43086 L 198.90914 305.22526" />
    <path d="M 198.90914 274.96369 L 198.90914 169.1519" />
    <path d="M 198.90914 138.89033 L 198.90914 33.07854" />
    <path d="M 198.90914 2.81697 L 198.90914 -76.68953" />
    <path d="M 251.90701 140.4151 L 251.90701 151.30097" />
    <path d="M 251.90701 140.4151 L 225.38645 129.25537" />
    <path d="M 251.90701 276.48845 L 251.90701 287.37432" />
    <path d="M 251.90701 276.48845 L 225.38645 265.32873" />
    <path d="M 251.94215 332.74689 L 260.42743 329.17633 L 260.42743 -96.92141" />
    <path d="M 256.18479 13.45711 L 256.18479 2.57124" />
    <path d="M 256.18479 138.6446 L 256.18479 149.53047" />
    <path d="M 256.18479 274.71795 L 256.18479 285.60382" />
    <path d="M -375 -210.46012 A 375 157.79816 180 0 0 375 -210.46012" />
    <path d="M 148.93518 -65.64099 A 320.5 134.86483 360 0 1 6 -50.21857" />
    <path d="M -6 -50.21857 A 320.5 134.86483 360 0 1 -148.93518 -65.64099" />
    <path d="M 6 167.49422 A 324.8 136.67425 180 0 0 225.38645 129.25537" />
    <path d="M 6 303.56758 A 324.8 136.67425 180 0 0 225.38645 265.32873" />
    <path d="M -265.16504 -332.92615 A 375 157.79816 360 0 1 375 -221.34599 A 375 157.79816 360 0 1 -375 -221.34599 A 375 157.79816 360 0 1 -265.16504 -332.92615 Z" />
    <path d="M 362.3 225.68507 L 362.3 -169.74135" />
    <path d="M 287.3 225.68507 L 293.24052 225.68507" />
    <path d="M 343.96653 225.68507 L 362.3 225.68507" />
    <path d="M 287.3 225.68507 L 287.3 134.60961" />
    <path d="M 287.3 94.59584 L 287.3 -1.46374" />
    <path d="M 287.3 -41.47752 L 287.3 -109.04614" />
    <path d="M 362.25031 -102.70529 L 362.25031 -91.81942" />
    <path d="M 362.25031 -102.70529 L 324.74458 -102.70529" />
    <path d="M 362.25031 33.36806 L 362.25031 44.25393" />
    <path d="M 362.25031 33.36806 L 324.74458 33.36806" />
    <path d="M 362.25031 169.44142 L 362.25031 180.32729" />
    <path d="M 362.25031 169.44142 L 324.74458 169.44142" />
    <path d="M 6 375.61437 L 6 -52.68216" />
    <path d="M -6 375.61437 L 6 375.61437" />
    <path d="M -6 375.61437 L -6 -52.68216" />
    <path d="M 0 47.224 L 0 58.10987" />
    <path d="M 0 183.29736 L 0 194.18323" />
    <path d="M 0 319.37072 L 0 330.25659" />
    <path d="M -251.94215 332.74689 L -198.90914 310.43086 L -198.90914 305.22526" />
    <path d="M -198.90914 274.96369 L -198.90914 169.1519" />
    <path d="M -198.90914 138.89033 L -198.90914 33.07854" />
    <path d="M -198.90914 2.81697 L -198.90914 -76.68953" />
    <path d="M -251.94215 332.74689 L -251.94215 -93.58043" />
    <path d="M -225.38645 -6.81798 L -251.90701 4.34174 L -251.90701 15.22761 A 362.3 152.45407 180 0 0 362.25031 -91.81942" />
    <path d="M -225.38645 129.25537 L -251.90701 140.4151 L -251.90701 151.30097 A 362.3 152.45407 180 0 0 251.90701 151.30097" />
    <path d="M -225.38645 265.32873 L -251.90701 276.48845 L -251.90701 287.37432 A 362.3 152.45407 180 0 0 251.90701 287.37432" />
    <path d="M -260.42743 329.17633 L -251.94215 332.74689" />
    <path d="M -260.42743 329.17633 L -260.42743 -96.92141" />
    <path d="M -256.18479 2.57124 L -256.18479 13.45711" />
    <path d="M -256.18479 138.6446 L -256.18479 149.53047" />
    <path d="M -256.18479 274.71795 L -256.18479 285.60382" />
    <path d="M -362.3 225.68507 L -343.96653 225.68507" />
    <path d="M -293.24052 225.68507 L -287.3 225.68507 L -287.3 134.60961" />
    <path d="M -287.3 94.59584 L -287.3 -1.46374" />
    <path d="M -287.3 -41.47752 L -287.3 -109.04614" />
    <path d="M -362.3 225.68507 L -362.3 -169.74135" />
    <path d="M -324.74458 -102.70529 L -362.25031 -102.70529 L -362.25031 -91.81942 A 362.3 152.45407 180 0 0 -251.94215 15.21331" />
    <path d="M -324.74458 33.36806 L -362.25031 33.36806 L -362.25031 44.25393 A 362.3 152.45407 180 0 0 -251.94215 151.28666" />
    <path d="M -324.74458 169.44142 L -362.25031 169.44142 L -362.25031 180.32729 A 362.3 152.45407 180 0 0 -251.94215 287.36002" />
    <path d="M 260.42743 -75.14266 A 362.3 152.45407 360 0 1 287.3 -62.03716" />
    <path d="M 362.25031 33.36806 A 362.3 152.45407 360 0 1 251.94215 140.40079" />
    <path d="M 251.90701 140.4151 A 362.3 152.45407 360 0 1 -251.90701 140.4151" />
    <path d="M -251.94215 140.40079 A 362.3 152.45407 360 0 1 -362.25031 33.36806" />
    <path d="M -287.3 -62.03716 A 362.3 152.45407 360 0 1 -260.42743 -75.14266" />
    <path d="M 260.42743 112.51722 A 324.8 136.67425 180 0 0 324.74458 33.36806" />
    <path d="M 281.69607 -37.19338 A 324.8 136.67425 180 0 0 260.42743 -50.83063" />
    <path d="M -260.42743 -50.83063 A 324.8 136.67425 180 0 0 -281.69607 -37.19338" />
    <path d="M -324.74458 33.36806 A 324.8 136.67425 180 0 0 -260.42743 112.51722" />
    <path d="M -225.38645 129.25537 A 324.8 136.67425 180 0 0 -6 167.49422" />
    <path d="M 251.94215 151.28666 A 362.3 152.45407 180 0 0 362.25031 44.25393" />
    <path d="M 260.42743 -39.94477 A 324.8 136.67425 360 0 1 273.866 -31.75045" />
    <path d="M 180.01691 -72.03266 A 324.8 136.67425 360 0 1 198.90914 -66.31787" />
    <path d="M -198.90914 -66.31787 A 324.8 136.67425 360 0 1 -180.01691 -72.03266" />
    <path d="M -273.866 -31.75045 A 324.8 136.67425 360 0 1 -260.42743 -39.94477" />
    <path d="M -198.90914 39.49391 A 362.3 152.45407 360 0 1 -186.78887 36.28623" />
    <path d="M 186.78887 36.28623 A 362.3 152.45407 360 0 1 198.90914 39.49391" />
    <path d="M 260.42743 60.9307 A 362.3 152.45407 360 0 1 287.3 74.0362" />
    <path d="M 362.25031 169.44142 A 362.3 152.45407 360 0 1 251.94215 276.47415" />
    <path d="M 251.90701 276.48845 A 362.3 152.45407 360 0 1 -251.90701 276.48845" />
    <path d="M -251.94215 276.47415 A 362.3 152.45407 360 0 1 -362.25031 169.44142" />
    <path d="M -287.3 74.0362 A 362.3 152.45407 360 0 1 -260.42743 60.9307" />
    <path d="M 260.42743 248.59058 A 324.8 136.67425 180 0 0 324.74458 169.44142" />
    <path d="M 281.69607 98.87997 A 324.8 136.67425 180 0 0 260.42743 85.24272" />
    <path d="M 198.90914 58.86961 A 324.8 136.67425 180 0 0 156 47.03875" />
    <path d="M -156 47.03875 A 324.8 136.67425 180 0 0 -198.90914 58.86961" />
    <path d="M -260.42743 85.24272 A 324.8 136.67425 180 0 0 -281.69607 98.87997" />
    <path d="M -324.74458 169.44142 A 324.8 136.67425 180 0 0 -260.42743 248.59058" />
    <path d="M -225.38645 265.32873 A 324.8 136.67425 180 0 0 -6 303.56758" />
    <path d="M 251.94215 287.36002 A 362.3 152.45407 180 0 0 362.25031 180.32729" />
    <path d="M 260.42743 96.12859 A 324.8 136.67425 360 0 1 273.866 104.32291" />
    <path d="M 156 57.92462 A 324.8 136.67425 360 0 1 198.90914 69.75548" />
    <path d="M -198.90914 69.75548 A 324.8 136.67425 360 0 1 -156 57.92462" />
    <path d="M -273.866 104.32291 A 324.8 136.67425 360 0 1 -260.42743 96.12859" />
    <path d="M 347.98 -221.34599 A 347.98 146.42828 360 0 1 -347.98 -221.34599" />
    <path d="M -246.05902 -326.70073 A 347.98 146.42828 360 0 1 347.98 -223.1603 L 347.98 -221.34599" />
    <path d="M 347.98 -223.1603 A 347.98 146.42828 360 0 1 -347.98 -223.1603 L -347.98 -221.34599" />
    <path d="M -347.98 -223.1603 A 347.98 146.42828 360 0 1 -246.05902 -326.70073" />
    <path d="M 15.17519 -50.34619 A 95 39.97554 360 0 1 6 -49.91269" />
    <path d="M -6 -49.91269 A 95 39.97554 360 0 1 -15.17519 -50.34619" />
    <path d="M 144.01659 -64.57747 A 156 65.64404 360 0 1 6 -24.21295" />
    <path d="M -6 -24.21295 A 156 65.64404 360 0 1 -144.01659 -64.57747" />
    <path d="M -156 200.48141 A 156 65.64404 180 0 0 -6 266.07688" />
    <path d="M 6 266.07688 A 156 65.64404 180 0 0 156 200.48141" />
    <path d="M 362.25031 -102.70529 A 362.3 152.45407 360 0 1 -251.90701 4.34174" />
    <path d="M -251.94215 4.32744 A 362.3 152.45407 360 0 1 -362.25031 -102.70529" />
    <path d="M 260.42743 -23.55613 A 324.8 136.67425 180 0 0 324.74458 -102.70529" />
    <path d="M -324.74458 -102.70529 A 324.8 136.67425 180 0 0 -260.42743 -23.55613" />
    <path d="M -225.38645 -6.81798 A 324.8 136.67425 180 0 0 -6 31.42087" />
    <path d="M 6 31.42087 A 324.8 136.67425 180 0 0 229.66828 -8.58677" />
    <path d="M -375 -221.34599 L -375 -210.46012" />
    <path d="M 375 -221.34599 L 375 -210.46012" />
    <path d="M -156 -66.96406 L -156 14.64784" />
    <path d="M -156 43.25342 L -156 150.7212" />
    <path d="M -156 179.32677 L -156 200.48141" />
    <path d="M 156 -66.96406 L 156 14.64784" />
    <path d="M 156 43.25342 L 156 150.7212" />
    <path d="M 156 179.32677 L 156 200.48141" />
</svg>