<svg version="1.1" xmlns="http://www.w3.org/2000/svg" viewBox="-375.500001 -380.05456123972147 751.000002 756.1517766894298" fill="none" stroke="black" stroke-width="0.6%" vector-effect="non-scaling-stroke">
    <path d="M 197.84848 310.02715 L 250.88149 332.3677 L 250.88149 287.57681" />
    <path d="M 250.88149 276.13736 L 225.03284 265.24842" />
    <path d="M 250.88149 276.13736 L 250.88149 151.53565" />
    <path d="M 250.88149 140.0962 L 225.03284 129.20726" />
    <path d="M 250.88149 140.0962 L 250.88149 15.49449" />
    <path d="M 250.88149 4.05504 L 225.03284 -6.8339" />
    <path d="M 250.88149 4.05504 L 250.88149 -93.282" />
    <path d="M 197.84848 310.02715 L 197.84848 305.36409" />
    <path d="M 197.84848 275.12187 L 197.84848 169.32293" />
    <path d="M 197.84848 139.08071 L 197.84848 33.28176" />
    <path d="M 197.84848 3.03955 L 197.84848 -76.46221" />
    <path d="M 250.88149 332.3677 L 259.36677 328.79321 L 259.36677 284.02104" />
    <path d="M -361.8 177.76045 A 361.8 152.41097 180 0 0 361.8 177.76045" />
    <path d="M -273.42154 104.29822 A 324.3 136.61381 360 0 1 -259.36677 95.75105" />
    <path d="M -197.84848 69.51574 A 324.3 136.61381 360 0 1 -156 57.99101" />
    <path d="M 156 57.99101 A 324.3 136.61381 360 0 1 197.84848 69.51574" />
    <path d="M 259.36677 95.75105 A 324.3 136.61381 360 0 1 273.42154 104.29822" />
    <path d="M 6 303.46759 A 324.3 136.61381 180 0 0 225.03284 265.24842" />
    <path d="M -197.84848 39.27352 A 361.8 152.41097 360 0 1 -186.50733 36.27764" />
    <path d="M 186.50733 36.27764 A 361.8 152.41097 360 0 1 197.84848 39.27352" />
    <path d="M 259.36677 60.61657 A 361.8 152.41097 360 0 1 285.8 73.42101" />
    <path d="M 360.8 155.55324 A 361.8 152.41097 360 0 1 361.8 166.87716 A 361.8 152.41097 360 0 1 -361.8 166.87716 A 361.8 152.41097 360 0 1 -360.8 155.55324" />
    <path d="M -285.8 73.42101 A 361.8 152.41097 360 0 1 -259.36677 60.61657" />
    <path d="M 259.36677 272.56287 L 250.88149 276.13736" />
    <path d="M 6 318.86687 L -6 318.86687 L -6 194.1093" />
    <path d="M -225.03284 265.24842 A 324.3 136.61381 180 0 0 -6 303.46759" />
    <path d="M -225.03284 265.24842 L -250.88149 276.13736 L -259.36677 272.56287 L -259.36677 147.97988" />
    <path d="M -324.24449 169.4047 A 324.3 136.61381 180 0 0 -259.36677 248.88656" />
    <path d="M -324.24449 169.4047 L -360.8 169.4047 L -360.8 53.04321" />
    <path d="M -259.36677 84.86775 A 324.3 136.61381 180 0 0 -281.24336 98.85658" />
    <path d="M -156 47.10772 A 324.3 136.61381 180 0 0 -197.84848 58.63244" />
    <path d="M 197.84848 58.63244 A 324.3 136.61381 180 0 0 156 47.10772" />
    <path d="M 281.24336 98.85658 A 324.3 136.61381 180 0 0 259.36677 84.86775" />
    <path d="M 360.8 169.4047 L 324.24449 169.4047" />
    <path d="M 259.36677 248.88656 A 324.3 136.61381 180 0 0 324.24449 169.4047" />
    <path d="M 259.36677 272.56287 L 259.36677 147.97988" />
    <path d="M -361.8 41.71929 A 361.8 152.41097 180 0 0 361.8 41.71929" />
    <path d="M -273.42154 -31.74294 A 324.3 136.61381 360 0 1 -259.36677 -40.29011" />
    <path d="M -197.84848 -66.52543 A 324.3 136.61381 360 0 1 -179.71094 -72.00032" />
    <path d="M 179.71094 -72.00032 A 324.3 136.61381 360 0 1 197.84848 -66.52543" />
    <path d="M 259.36677 -40.29011 A 324.3 136.61381 360 0 1 273.42154 -31.74294" />
    <path d="M 6 167.42642 A 324.3 136.61381 180 0 0 225.03284 129.20726" />
    <path d="M 259.36677 -75.42459 A 361.8 152.41097 360 0 1 285.8 -62.62015" />
    <path d="M 360.8 19.51208 A 361.8 152.41097 360 0 1 361.8 30.836 L 361.8 41.71929" />
    <path d="M 361.8 30.836 A 361.8 152.41097 360 0 1 -361.8 30.836 L -361.8 41.71929" />
    <path d="M -361.8 30.836 A 361.8 152.41097 360 0 1 -360.8 19.51208" />
    <path d="M -285.8 -62.62015 A 361.8 152.41097 360 0 1 -259.36677 -75.42459" />
    <path d="M 259.36677 136.52171 L 250.88149 140.0962" />
    <path d="M 6 182.82571 L -6 182.82571 L -6 58.06814" />
    <path d="M -225.03284 129.20726 A 324.3 136.61381 180 0 0 -6 167.42642" />
    <path d="M -225.03284 129.20726 L -250.88149 140.0962 L -250.88149 15.49449" />
    <path d="M -250.88149 140.0962 L -259.36677 136.52171 L -259.36677 11.93871" />
    <path d="M -324.24449 33.36354 A 324.3 136.61381 180 0 0 -259.36677 112.8454" />
    <path d="M -324.24449 33.36354 L -360.8 33.36354 L -360.8 -82.99796" />
    <path d="M -259.36677 -51.17341 A 324.3 136.61381 180 0 0 -281.24336 -37.18458" />
    <path d="M 281.24336 -37.18458 A 324.3 136.61381 180 0 0 259.36677 -51.17341" />
    <path d="M 360.8 33.36354 L 324.24449 33.36354" />
    <path d="M 259.36677 112.8454 A 324.3 136.61381 180 0 0 324.24449 33.36354" />
    <path d="M 259.36677 136.52171 L 259.36677 11.93871" />
    <path d="M -361.8 -94.32187 A 361.8 152.41097 180 0 0 361.8 -94.32187" />
    <path d="M 6 31.38526 A 324.3 136.61381 180 0 0 225.03284 -6.8339" />
    <path d="M 360.8 -116.52908 A 361.8 152.41097 360 0 1 361.8 -105.20516 L 361.8 -94.32187" />
    <path d="M 361.8 -105.20516 A 361.8 152.41097 360 0 1 -361.8 -105.20516 L -361.8 -94.32187" />
    <path d="M -361.8 -105.20516 A 361.8 152.41097 360 0 1 -360.8 -116.52908" />
    <path d="M 259.36677 0.48055 L 250.88149 4.05504" />
    <path d="M 6 46.78455 L -6 46.78455 L -6 -52.66964" />
    <path d="M -225.03284 -6.8339 A 324.3 136.61381 180 0 0 -6 31.38526" />
    <path d="M -225.03284 -6.8339 L -250.88149 4.05504 L -250.88149 -93.282" />
    <path d="M -250.88149 4.05504 L -259.36677 0.48055 L -259.36677 -96.60909" />
    <path d="M -324.24449 -102.67762 A 324.3 136.61381 180 0 0 -259.36677 -23.19576" />
    <path d="M -324.24449 -102.67762 L -360.8 -102.67762 L -360.8 -168.12982" />
    <path d="M 360.8 -102.67762 L 324.24449 -102.67762" />
    <path d="M 259.36677 -23.19576 A 324.3 136.61381 180 0 0 324.24449 -102.67762" />
    <path d="M 259.36677 0.48055 L 259.36677 -96.60909" />
    <path d="M -374.5 -210.41033 A 374.5 157.76094 180 0 0 374.5 -210.41033" />
    <path d="M 153.87656 -66.58173 A 320.5 135.01303 360 0 1 6 -50.02661" />
    <path d="M -6 -50.02661 A 320.5 135.01303 360 0 1 -153.87656 -66.58173" />
    <path d="M 6 46.78455 L 6 -52.66964" />
    <path d="M 6 182.82571 L 6 58.06814" />
    <path d="M 6 318.86687 L 6 194.1093" />
    <path d="M 6 375.09721 L 6 330.15046" />
    <path d="M -6 375.09721 L 6 375.09721" />
    <path d="M -6 375.09721 L -6 330.15046" />
    <path d="M -250.88149 332.3677 L -197.84848 310.02715 L -197.84848 305.36409" />
    <path d="M -197.84848 275.12187 L -197.84848 169.32293" />
    <path d="M -197.84848 139.08071 L -197.84848 33.28176" />
    <path d="M -197.84848 3.03955 L -197.84848 -76.46221" />
    <path d="M -250.88149 276.13736 L -250.88149 151.53565" />
    <path d="M -250.88149 332.3677 L -250.88149 287.57681" />
    <path d="M -259.36677 328.79321 L -250.88149 332.3677" />
    <path d="M -259.36677 328.79321 L -259.36677 284.02104" />
    <path d="M -360.8 225.63505 L -343.48745 225.63505" />
    <path d="M -292.77163 225.63505 L -285.8 225.63505 L -285.8 135.17544" />
    <path d="M -285.8 95.39823 L -285.8 -0.86572" />
    <path d="M -285.8 -40.64293 L -285.8 -108.462" />
    <path d="M -360.8 225.63505 L -360.8 189.08437" />
    <path d="M 360.8 225.63505 L 360.8 189.08437" />
    <path d="M 285.8 225.63505 L 292.77163 225.63505" />
    <path d="M 343.48745 225.63505 L 360.8 225.63505" />
    <path d="M 360.8 169.4047 L 360.8 53.04321" />
    <path d="M 360.8 33.36354 L 360.8 -82.99796" />
    <path d="M 360.8 -102.67762 L 360.8 -168.12982" />
    <path d="M 285.8 225.63505 L 285.8 135.17544" />
    <path d="M 285.8 95.39823 L 285.8 -0.86572" />
    <path d="M 285.8 -40.64293 L 285.8 -108.462" />
    <path d="M -264.81149 -332.84745 A 374.5 157.76094 360 0 1 374.5 -221.29362 L 374.5 -210.41033" />
    <path d="M 374.5 -221.29362 A 374.5 157.76094 360 0 1 -374.5 -221.29362 L -374.5 -210.41033" />
    <path d="M -374.5 -221.29362 A 374.5 157.76094 360 0 1 -264.81149 -332.84745" />
    <path d="M 347.98 -221.29362 A 347.98 146.58919 360 0 1 -347.98 -221.29362" />
    <path d="M -246.05902 -326.76171 A 347.98 146.58919 360 0 1 347.98 -223.1075 L 347.98 -221.29362" />
    <path d="M 347.98 -223.1075 A 347.98 146.58919 360 0 1 -347.98 -223.1075 L -347.98 -221.29362" />
    <path d="M -347.98 -223.1075 A 347.98 146.58919 360 0 1 -246.05902 -326.76171" />
    <path d="M 12.24466 -50.10151 A 95 40.01946 360 0 1 6 -49.8476" />
    <path d="M -6 -49.8476 A 95 40.01946 360 0 1 -12.24466 -50.10151" />
    <path d="M 143.85684 -64.36746 A 156 65.71617 360 0 1 6 -24.11962" />
    <path d="M -6 -24.11962 A 156 65.71617 360 0 1 -143.85684 -64.36746" />
    <path d="M -156 200.43398 A 156 65.71617 180 0 0 -6 266.10152" />
    <path d="M 6 266.10152 A 156 65.71617 180 0 0 156 200.43398" />
    <path d="M -361.8 166.87716 L -361.8 177.76045" />
    <path d="M 361.8 166.87716 L 361.8 177.76045" />
    <path d="M -156 -66.98823 L -156 14.56427" />
    <path d="M -156 43.19354 L -156 150.60543" />
    <path d="M -156 179.2347 L -156 200.43398" />
    <path d="M 156 -66.98823 L 156 14.56427" />
    <path d="M 156 43.19354 L 156 150.60543" />
    <path d="M 156 179.2347 L 156 200.43398" />
</svg>