<svg version="1.1" xmlns="http://www.w3.org/2000/svg" viewBox="-382.000001 -26.596685971348617 764.000002 53.19337194269725" fill="none" stroke="black" stroke-width="0.6%" vector-effect="non-scaling-stroke">
    <path d="M -172.97038 -5.5473 A 381 10.60249 360 0 1 -381 -14.99419 A 381 10.60249 360 0 1 381 -14.99419 A 381 10.60249 360 0 1 -172.97038 -5.5473 Z" />
    <path d="M -172.97038 24.44108 A 381 10.60249 180 0 0 381 14.99419" />
    <path d="M -381 14.99419 A 381 10.60249 180 0 0 -172.97038 24.44108" />
    <path d="M -161.62062 -6.16717 A 356 9.90679 360 0 1 -356 -14.99419 A 356 9.90679 360 0 1 356 -14.99419 A 356 9.90679 360 0 1 -161.62062 -6.16717 Z" />
    <path d="M -381 -14.99419 L -381 14.99419" />
    <path d="M 381 -14.99419 L 381 14.99419" />
</svg>