<svg version="1.1" xmlns="http://www.w3.org/2000/svg" viewBox="-348.98000100000013 -376.63127402992325 697.9600019999999 645.0611206652814" fill="none" stroke="black" stroke-width="0.6%" vector-effect="non-scaling-stroke">
    <path d="M 133.90375 -52.76609 A 156 69.75201 360 0 1 -133.90375 -52.76609" />
    <path d="M -156 197.67784 A 156 69.75201 180 0 0 156 197.67784" />
    <path d="M 309.63685 -147.24997 A 319.5 142.85747 360 0 1 -309.63685 -147.24997" />
    <path d="M 347.98 -218.25065 A 347.98 155.59169 360 1 1 -347.98 -218.25065" />
    <path d="M -246.05884 -330.0596 A 347.98 155.59169 360 0 1 347.98 -220.03959 A 347.98 155.59169 360 1 1 -347.98 -220.03959 L -347.98 -218.25065" />
    <path d="M -347.98 -220.03959 A 347.98 155.59169 360 0 1 -246.05884 -330.0596" />
    <path d="M 224.50624 -119.65636 A 317.5 141.96322 360 0 1 -317.5 -220.03959 A 317.5 141.96322 360 0 1 317.5 -220.03959 A 317.5 141.96322 360 0 1 224.50624 -119.65636 Z" />
    <path d="M -314.96902 -202.15019 A 317.5 141.96322 360 0 1 314.96902 -202.15019" />
    <path d="M -156 -57.80062 L -156 197.67784" />
    <path d="M 156 -57.80062 L 156 197.67784" />
    <path d="M 347.98 -220.03959 L 347.98 -218.25065" />
</svg>