<svg version="1.1" xmlns="http://www.w3.org/2000/svg" viewBox="-375.500001 -379.79117593838384 751.000002 756.5209653765994" fill="none" stroke="black" stroke-width="0.6%" vector-effect="non-scaling-stroke">
    <path d="M 64.38977 -29.33994 A 156 65.82966 360 0 1 6 -23.51942" />
    <path d="M -6 -23.51942 A 156 65.82966 360 0 1 -64.38977 -29.33994" />
    <path d="M -301.80355 -116.31116 A 320.5 135.2462 180 0 0 -259.36677 -82.37751" />
    <path d="M -222.34537 -64.42152 A 320.5 135.2462 180 0 0 -6 -26.6061" />
    <path d="M 6 -26.6061 A 320.5 135.2462 180 0 0 222.34537 -64.42152" />
    <path d="M 259.36677 -82.37751 A 320.5 135.2462 180 0 0 301.80355 -116.31116" />
    <path d="M -156 200.81252 A 156 65.82966 180 0 0 -6 266.59348" />
    <path d="M 6 266.59348 A 156 65.82966 180 0 0 156 200.81252" />
    <path d="M -285.8 226.0095 L -285.8 135.77458" />
    <path d="M -285.8 95.95153 L -285.8 -1.12245" />
    <path d="M -285.8 -40.94549 L -285.8 -100.62097" />
    <path d="M -360.8 226.0095 L -343.56203 226.0095" />
    <path d="M -292.90478 226.0095 L -285.8 226.0095" />
    <path d="M -360.8 -103.08732 L -360.8 -167.52502" />
    <path d="M -324.24449 -103.08732 L -360.8 -103.08732" />
    <path d="M -360.8 33.80971 L -360.8 -83.39652" />
    <path d="M -324.24449 33.80971 L -360.8 33.80971" />
    <path d="M -360.8 169.80013 L -360.8 53.5005" />
    <path d="M -324.24449 169.80013 L -360.8 169.80013" />
    <path d="M -360.8 226.0095 L -360.8 189.49092" />
    <path d="M -259.36677 329.34582 L -259.36677 284.59155" />
    <path d="M -259.36677 273.13645 L -259.36677 148.60113" />
    <path d="M -259.36677 137.14603 L -259.36677 11.70411" />
    <path d="M -259.36677 0.24901 L -259.36677 -95.88077" />
    <path d="M -197.84848 310.54735 L -197.84848 305.97146" />
    <path d="M -197.84848 275.69987 L -197.84848 169.98104" />
    <path d="M -197.84848 139.70945 L -197.84848 33.08402" />
    <path d="M -197.84848 2.81243 L -197.84848 -55.42791" />
    <path d="M -250.88149 332.92648 L -197.84848 310.54735" />
    <path d="M -222.34537 -82.71268 L -222.34537 -64.42152" />
    <path d="M -250.88149 3.82967 L -250.88149 -92.54794" />
    <path d="M -225.03284 -7.07808 L -250.88149 3.82967 L -259.36677 0.24901" />
    <path d="M -250.88149 140.72669 L -250.88149 15.26603" />
    <path d="M -225.03284 129.81895 L -250.88149 140.72669 L -259.36677 137.14603" />
    <path d="M -250.88149 276.71711 L -250.88149 152.16305" />
    <path d="M -225.03284 265.80937 L -250.88149 276.71711 L -259.36677 273.13645" />
    <path d="M -250.88149 332.92648 L -250.88149 288.15347" />
    <path d="M -6 375.72979 L -6 330.80064" />
    <path d="M -6 319.52041 L -6 194.81022" />
    <path d="M -6 183.53 L -6 57.9132" />
    <path d="M -6 46.63297 L -6 -51.86544" />
    <path d="M 6 46.63297 L 6 -51.86544" />
    <path d="M 6 183.53 L 6 57.9132" />
    <path d="M 6 319.52041 L 6 194.81022" />
    <path d="M 6 375.72979 L 6 330.80064" />
    <path d="M 222.34537 -82.71268 L 222.34537 -64.42152" />
    <path d="M 197.84848 310.54735 L 250.88149 332.92648 L 259.36677 329.34582 L 259.36677 284.59155" />
    <path d="M 250.88149 332.92648 L 250.88149 288.15347" />
    <path d="M 250.88149 276.71711 L 225.03284 265.80937 A 324.3 136.84974 0 0 1 6 304.09454" />
    <path d="M 250.88149 276.71711 L 250.88149 152.16305" />
    <path d="M 250.88149 140.72669 L 225.03284 129.81895 A 324.3 136.84974 0 0 1 6 168.10412" />
    <path d="M 250.88149 140.72669 L 250.88149 15.26603" />
    <path d="M 250.88149 3.82967 L 225.03284 -7.07808 A 324.3 136.84974 0 0 1 6 31.20709" />
    <path d="M 250.88149 3.82967 L 250.88149 -92.54794" />
    <path d="M 197.84848 310.54735 L 197.84848 305.97146" />
    <path d="M 197.84848 275.69987 L 197.84848 169.98104" />
    <path d="M 197.84848 139.70945 L 197.84848 33.08402" />
    <path d="M 197.84848 2.81243 L 197.84848 -55.42791" />
    <path d="M 259.36677 0.24901 L 259.36677 -95.88077" />
    <path d="M 259.36677 137.14603 L 259.36677 11.70411" />
    <path d="M 259.36677 273.13645 L 259.36677 148.60113" />
    <path d="M 285.8 226.0095 L 292.90478 226.0095" />
    <path d="M 343.56203 226.0095 L 360.8 226.0095 L 360.8 189.49092" />
    <path d="M 360.8 169.80013 L 324.24449 169.80013 A 324.3 136.84974 0 0 1 259.36677 249.41925" />
    <path d="M 360.8 169.80013 L 360.8 53.5005" />
    <path d="M 360.8 33.80971 L 324.24449 33.80971 A 324.3 136.84974 0 0 1 259.36677 113.42883" />
    <path d="M 360.8 33.80971 L 360.8 -83.39652" />
    <path d="M 360.8 -103.08732 L 324.24449 -103.08732 A 324.3 136.84974 0 0 1 259.36677 -23.46819" />
    <path d="M 360.8 -103.08732 L 360.8 -167.52502" />
    <path d="M 285.8 226.0095 L 285.8 135.77458" />
    <path d="M 285.8 95.95153 L 285.8 -1.12245" />
    <path d="M 285.8 -40.94549 L 285.8 -100.62097" />
    <path d="M -374.5 -209.87855 A 374.5 158.03339 180 0 0 374.5 -209.87855" />
    <path d="M -349.47196 217.66244 A 361.8 152.67418 180 0 0 361.8 178.14745" />
    <path d="M -361.8 178.14745 A 361.8 152.67418 180 0 0 -349.47196 217.66244" />
    <path d="M -259.36677 95.99642 A 324.3 136.84974 180 0 0 -273.65436 104.71262" />
    <path d="M -156 58.17117 A 324.3 136.84974 180 0 0 -197.84848 69.7158" />
    <path d="M 197.84848 69.7158 A 324.3 136.84974 180 0 0 156 58.17117" />
    <path d="M 273.65436 104.71262 A 324.3 136.84974 180 0 0 259.36677 95.99642" />
    <path d="M -281.43744 99.27301 A 324.3 136.84974 0 0 1 -259.36677 85.11718" />
    <path d="M -349.47196 206.7832 A 361.8 152.67418 0 0 1 -361.8 167.26822 L -361.8 178.14745" />
    <path d="M -361.8 167.26822 A 361.8 152.67418 0 0 1 -360.8 155.92474" />
    <path d="M -285.8 73.65067 A 361.8 152.67418 0 0 1 -259.36677 60.82412" />
    <path d="M -197.84848 39.44421 A 361.8 152.67418 0 0 1 -185.80023 36.26411" />
    <path d="M 185.80023 36.26411 A 361.8 152.67418 0 0 1 197.84848 39.44421" />
    <path d="M 259.36677 60.82412 A 361.8 152.67418 0 0 1 285.8 73.65067" />
    <path d="M 360.8 155.92474 A 361.8 152.67418 0 0 1 361.8 167.26822 L 361.8 178.14745" />
    <path d="M 361.8 167.26822 A 361.8 152.67418 0 0 1 -349.47196 206.7832" />
    <path d="M -313.24975 202.68754 A 324.3 136.84974 0 0 1 -324.24449 169.80013" />
    <path d="M -197.84848 58.83656 A 324.3 136.84974 0 0 1 -156 47.29194" />
    <path d="M 156 47.29194 A 324.3 136.84974 0 0 1 197.84848 58.83656" />
    <path d="M 259.36677 85.11718 A 324.3 136.84974 0 0 1 281.43744 99.27301" />
    <path d="M 259.36677 273.13645 L 250.88149 276.71711" />
    <path d="M 6 319.52041 L -6 319.52041" />
    <path d="M -6 304.09454 A 324.3 136.84974 0 0 1 -225.03284 265.80937" />
    <path d="M -259.36677 249.41925 A 324.3 136.84974 0 0 1 -313.24975 202.68754" />
    <path d="M -349.47196 81.67202 A 361.8 152.67418 180 0 0 361.8 42.15703" />
    <path d="M -361.8 42.15703 A 361.8 152.67418 180 0 0 -349.47196 81.67202" />
    <path d="M -259.36677 -39.994 A 324.3 136.84974 180 0 0 -272.96828 -31.7311" />
    <path d="M 272.96828 -31.7311 A 324.3 136.84974 180 0 0 259.36677 -39.994" />
    <path d="M -280.81969 -37.17071 A 324.3 136.84974 0 0 1 -259.36677 -50.87324" />
    <path d="M -349.47196 70.79278 A 361.8 152.67418 0 0 1 -361.8 31.2778 L -361.8 42.15703" />
    <path d="M -361.8 31.2778 A 361.8 152.67418 0 0 1 -360.8 19.93432" />
    <path d="M -285.8 -62.33975 A 361.8 152.67418 0 0 1 -259.36677 -75.1663" />
    <path d="M 259.36677 -75.1663 A 361.8 152.67418 0 0 1 285.8 -62.33975" />
    <path d="M 360.8 19.93432 A 361.8 152.67418 0 0 1 361.8 31.2778 L 361.8 42.15703" />
    <path d="M 361.8 31.2778 A 361.8 152.67418 0 0 1 -349.47196 70.79278" />
    <path d="M -313.24975 66.69712 A 324.3 136.84974 0 0 1 -324.24449 33.80971" />
    <path d="M 259.36677 -50.87324 A 324.3 136.84974 0 0 1 280.81969 -37.17071" />
    <path d="M 259.36677 137.14603 L 250.88149 140.72669" />
    <path d="M 6 183.53 L -6 183.53" />
    <path d="M -6 168.10412 A 324.3 136.84974 0 0 1 -225.03284 129.81895" />
    <path d="M -259.36677 113.42883 A 324.3 136.84974 0 0 1 -313.24975 66.69712" />
    <path d="M -349.47196 -55.22501 A 361.8 152.67418 180 0 0 361.8 -94.73999" />
    <path d="M -361.8 -94.73999 A 361.8 152.67418 180 0 0 -349.47196 -55.22501" />
    <path d="M -349.47196 -66.10424 A 361.8 152.67418 0 0 1 -361.8 -105.61923 L -361.8 -94.73999" />
    <path d="M -361.8 -105.61923 A 361.8 152.67418 0 0 1 -360.8 -116.9627" />
    <path d="M 360.8 -116.9627 A 361.8 152.67418 0 0 1 361.8 -105.61923 L 361.8 -94.73999" />
    <path d="M 361.8 -105.61923 A 361.8 152.67418 0 0 1 -349.47196 -66.10424" />
    <path d="M -313.24975 -70.19991 A 324.3 136.84974 0 0 1 -324.24449 -103.08732" />
    <path d="M 259.36677 0.24901 L 250.88149 3.82967" />
    <path d="M 6 46.63297 L -6 46.63297" />
    <path d="M -6 31.20709 A 324.3 136.84974 0 0 1 -225.03284 -7.07808" />
    <path d="M -259.36677 -23.46819 A 324.3 136.84974 0 0 1 -313.24975 -70.19991" />
    <path d="M -259.36677 329.34582 L -250.88149 332.92648" />
    <path d="M -6 375.72979 L 6 375.72979" />
    <path d="M -264.81149 -332.50427 A 374.5 158.03339 360 0 1 374.5 -220.75778 L 374.5 -209.87855" />
    <path d="M 374.5 -220.75778 A 374.5 158.03339 360 0 1 -374.5 -220.75778 L -374.5 -209.87855" />
    <path d="M -374.5 -220.75778 A 374.5 158.03339 360 0 1 -264.81149 -332.50427" />
    <path d="M -347.98 -220.75778 A 347.98 146.84235 180 0 0 347.98 -220.75778" />
    <path d="M -246.05902 -326.40421 A 347.98 146.84235 360 0 1 347.98 -222.57099 L 347.98 -220.75778" />
    <path d="M 347.98 -222.57099 A 347.98 146.84235 360 0 1 -347.98 -222.57099 L -347.98 -220.75778" />
    <path d="M -347.98 -222.57099 A 347.98 146.84235 360 0 1 -246.05902 -326.40421" />
    <path d="M 320.5 -222.57099 A 320.5 135.2462 360 0 1 -320.5 -222.57099" />
    <path d="M -226.62772 -319.1111 A 320.5 135.2462 360 0 1 320.5 -223.47759 L 320.5 -222.57099" />
    <path d="M 320.5 -223.47759 A 320.5 135.2462 360 0 1 -320.5 -223.47759 L -320.5 -222.57099" />
    <path d="M -320.5 -223.47759 A 320.5 135.2462 360 0 1 -226.62772 -319.1111" />
    <path d="M -156 -43.68466 L -156 14.35705" />
    <path d="M -156 43.01291 L -156 151.25408" />
    <path d="M -156 179.90993 L -156 200.81252" />
    <path d="M 156 -43.68466 L 156 14.35705" />
    <path d="M 156 43.01291 L 156 151.25408" />
    <path d="M 156 179.90993 L 156 200.81252" />
</svg>