<svg version="1.1" xmlns="http://www.w3.org/2000/svg" viewBox="-348.98000099999985 -431.3163787995477 697.9600019999999 742.8250656384425" fill="none" stroke="black" stroke-width="0.6%" vector-effect="non-scaling-stroke">
    <path d="M 95 -44.23094 A 95 48.66108 0 0 1 -95 -44.23094" />
    <path d="M 147.16461 -70.74097 A 156 79.90662 0 0 1 156 -44.23094 A 156 79.90662 0 0 1 -156 -44.23094 A 156 79.90662 0 0 1 -147.16461 -70.74097" />
    <path d="M -156 230.60207 A 156 79.90662 180 0 0 156 230.60207" />
    <path d="M 300.62666 -160.58714 A 319.5 163.6549 0 0 1 -300.62666 -160.58714" />
    <path d="M 347.98 -250.35569 A 347.98 178.24298 0 0 1 -347.98 -250.35569" />
    <path d="M -246.05884 -378.11031 A 347.98 178.24298 0 0 1 347.98 -252.0734 L 347.98 -250.35569" />
    <path d="M 347.98 -252.0734 A 347.98 178.24298 0 0 1 -347.98 -252.0734 L -347.98 -250.35569" />
    <path d="M -347.98 -252.0734 A 347.98 178.24298 0 0 1 -246.05884 -378.11031" />
    <path d="M 224.50624 -137.07621 A 317.5 162.63046 0 0 1 -317.5 -252.0734 A 317.5 162.63046 0 0 1 317.5 -252.0734 A 317.5 162.63046 0 0 1 224.50624 -137.07621 Z" />
    <path d="M -315.72408 -234.89633 A 317.5 162.63046 0 0 1 315.72408 -234.89633" />
    <path d="M -95 -59.74848 L -95 -44.23094" />
    <path d="M 95 -59.74848 L 95 -44.23094" />
    <path d="M -156 -44.23094 L -156 230.60207" />
    <path d="M 156 -44.23094 L 156 230.60207" />
</svg>