<svg version="1.1" xmlns="http://www.w3.org/2000/svg" viewBox="-375.50000100000005 -380.0544981518624 751.0000020000001 647.2046351834804" fill="none" stroke="black" stroke-width="0.6%" vector-effect="non-scaling-stroke">
    <path d="M -264.81149 -332.84741 A 374.5 157.76085 360 0 1 374.5 -221.29365 A 374.5 157.76085 360 0 1 -374.5 -221.29365 A 374.5 157.76085 360 0 1 -264.81149 -332.84741 Z" />
    <path d="M -374.5 -210.41035 A 374.5 157.76085 180 0 0 374.5 -210.41035" />
    <path d="M 347.98 -221.29365 A 347.98 146.58911 360 0 1 -347.98 -221.29365" />
    <path d="M 153.87699 -66.58192 A 320.5 135.01296 360 0 1 6 -50.02671" />
    <path d="M 6 -52.66975 L 6 -50.02671" />
    <path d="M -6 -52.66975 L -6 -50.02671 A 320.5 135.01296 360 0 1 -153.87699 -66.58192" />
    <path d="M -246.05902 -326.76168 A 347.98 146.58911 360 0 1 347.98 -223.10753 L 347.98 -221.29365" />
    <path d="M 347.98 -223.10753 A 347.98 146.58911 360 0 1 -347.98 -223.10753 L -347.98 -221.29365" />
    <path d="M -347.98 -223.10753 A 347.98 146.58911 360 0 1 -246.05902 -326.76168" />
    <path d="M 12.24638 -50.10164 A 95 40.01944 360 0 1 -12.24638 -50.10164" />
    <path d="M 143.85692 -64.36757 A 156 65.71613 360 0 1 -143.85692 -64.36757" />
    <path d="M -156 200.434 A 156 65.71613 180 0 0 156 200.434" />
    <path d="M -374.5 -221.29365 L -374.5 -210.41035" />
    <path d="M 374.5 -221.29365 L 374.5 -210.41035" />
    <path d="M -156 -66.98834 L -156 200.434" />
    <path d="M 156 -66.98834 L 156 200.434" />
</svg>