<svg version="1.1" xmlns="http://www.w3.org/2000/svg" viewBox="-375.50000100000005 -387.6537857351463 751.0000020000001 777.1135588105831" fill="none" stroke="black" stroke-width="0.6%" vector-effect="non-scaling-stroke">
    <path d="M -264.81149 -339.52569 A 374.5 160.90537 360 0 1 374.5 -225.74842 A 374.5 160.90537 360 0 1 -374.5 -225.74842 A 374.5 160.90537 360 0 1 -264.81149 -339.52569 Z" />
    <path d="M -374.5 -214.91249 A 374.5 160.90537 180 0 0 374.5 -214.91249" />
    <path d="M 347.98 -225.74842 A 347.98 149.51095 360 0 1 -347.98 -225.74842" />
    <path d="M 6 44.85388 L 6 -54.02778" />
    <path d="M 6 180.30293 L 6 56.09808" />
    <path d="M 6 315.75198 L 6 191.54713" />
    <path d="M 6 371.73759 L 6 326.99618" />
    <path d="M -6 44.85388 L -6 -54.02778" />
    <path d="M 6 44.85388 L -6 44.85388" />
    <path d="M -6 371.73759 L -6 326.99618" />
    <path d="M -6 315.75198 L -6 191.54713" />
    <path d="M -6 180.30293 L -6 56.09808" />
    <path d="M -6 -51.94874 A 320.5 137.70406 360 0 1 -137.60937 -65.26343" />
    <path d="M -250.88149 328.15641 L -197.84848 305.37057 L -197.84848 301.71578" />
    <path d="M -197.84848 271.13508 L -197.84848 166.26673" />
    <path d="M -197.84848 135.68603 L -197.84848 30.81768" />
    <path d="M -197.84848 0.23698 L -197.84848 -78.29457" />
    <path d="M -250.88149 1.2727 L -250.88149 -95.44961" />
    <path d="M -225.03284 -9.83327 L -250.88149 1.2727 L -259.36677 -2.37303 L -259.36677 -98.84301" />
    <path d="M -250.88149 136.72175 L -250.88149 12.67588" />
    <path d="M -225.03284 125.61578 L -250.88149 136.72175 L -259.36677 133.07602 L -259.36677 9.04923" />
    <path d="M -250.88149 272.1708 L -250.88149 148.12493" />
    <path d="M -225.03284 261.06483 L -250.88149 272.1708 L -259.36677 268.52507 L -259.36677 144.49828" />
    <path d="M -250.88149 328.15641 L -250.88149 283.57398" />
    <path d="M -259.36677 324.51068 L -259.36677 279.94733" />
    <path d="M -360.8 219.2964 L -344.32487 219.2964" />
    <path d="M -294.2647 219.2964 L -285.8 219.2964 L -285.8 131.43863" />
    <path d="M -285.8 91.13288 L -285.8 -4.01042" />
    <path d="M -285.8 -44.31617 L -285.8 -110.93217" />
    <path d="M -360.8 -107.5873 L -360.8 -171.78926" />
    <path d="M -324.24449 -107.5873 L -360.8 -107.5873" />
    <path d="M -360.8 27.86175 L -360.8 -87.77968" />
    <path d="M -324.24449 27.86175 L -360.8 27.86175" />
    <path d="M -360.8 163.3108 L -360.8 47.66937" />
    <path d="M -324.24449 163.3108 L -360.8 163.3108" />
    <path d="M -360.8 219.2964 L -360.8 183.11842" />
    <path d="M 360.8 -107.5873 L 360.8 -171.78926" />
    <path d="M 285.8 219.2964 L 294.2647 219.2964" />
    <path d="M 344.32487 219.2964 L 360.8 219.2964 L 360.8 183.11842" />
    <path d="M 360.8 163.3108 L 324.24449 163.3108" />
    <path d="M 360.8 163.3108 L 360.8 47.66937" />
    <path d="M 360.8 27.86175 L 324.24449 27.86175" />
    <path d="M 360.8 27.86175 L 360.8 -87.77968" />
    <path d="M 360.8 -107.5873 L 324.24449 -107.5873" />
    <path d="M 285.8 219.2964 L 285.8 131.43863" />
    <path d="M 285.8 91.13288 L 285.8 -4.01042" />
    <path d="M 285.8 -44.31617 L 285.8 -110.93217" />
    <path d="M 259.36677 -2.37303 L 259.36677 -98.84301" />
    <path d="M 259.36677 133.07602 L 259.36677 9.04923" />
    <path d="M 259.36677 268.52507 L 259.36677 144.49828" />
    <path d="M 259.36677 324.51068 L 259.36677 279.94733" />
    <path d="M 250.88149 1.2727 L 250.88149 -95.44961" />
    <path d="M 259.36677 -2.37303 L 250.88149 1.2727 L 225.03284 -9.83327" />
    <path d="M 197.84848 305.37057 L 250.88149 328.15641 L 259.36677 324.51068" />
    <path d="M 250.88149 328.15641 L 250.88149 283.57398" />
    <path d="M 250.88149 272.1708 L 225.03284 261.06483" />
    <path d="M 250.88149 272.1708 L 250.88149 148.12493" />
    <path d="M 250.88149 136.72175 L 225.03284 125.61578" />
    <path d="M 250.88149 136.72175 L 250.88149 12.67588" />
    <path d="M 197.84848 305.37057 L 197.84848 301.71578" />
    <path d="M 197.84848 271.13508 L 197.84848 166.26673" />
    <path d="M 197.84848 135.68603 L 197.84848 30.81768" />
    <path d="M 197.84848 0.23698 L 197.84848 -78.29457" />
    <path d="M 137.60937 -65.26343 A 320.5 137.70406 360 0 1 6 -51.94874" />
    <path d="M -246.05902 -333.27461 A 347.98 149.51095 360 0 1 347.98 -227.5544 L 347.98 -225.74842" />
    <path d="M 347.98 -227.5544 A 347.98 149.51095 360 0 1 -347.98 -227.5544 L -347.98 -225.74842" />
    <path d="M -347.98 -227.5544 A 347.98 149.51095 360 0 1 -246.05902 -333.27461" />
    <path d="M -264.81149 102.9412 A 374.5 160.90537 360 0 1 -259.36677 100.649" />
    <path d="M -197.84848 80.10056 A 374.5 160.90537 360 0 1 -156 70.43775" />
    <path d="M 156 70.43775 A 374.5 160.90537 360 0 1 197.84848 80.10056" />
    <path d="M 259.36677 100.649 A 374.5 160.90537 360 0 1 267.45229 104.08726" />
    <path d="M 361.71046 175.02701 A 374.5 160.90537 360 0 1 374.5 216.71848 L 374.5 227.5544" />
    <path d="M 374.5 216.71848 A 374.5 160.90537 360 0 1 -374.5 216.71848 L -374.5 227.5544 A 374.5 160.90537 180 0 0 374.5 227.5544" />
    <path d="M -374.5 216.71848 A 374.5 160.90537 360 0 1 -361.71046 175.02701" />
    <path d="M -267.45229 104.08726 A 374.5 160.90537 360 0 1 -264.81149 102.9412" />
    <path d="M -6 371.73759 L 6 371.73759" />
    <path d="M -259.36677 324.51068 L -250.88149 328.15641" />
    <path d="M 360.8 -121.71485 A 361.8 155.44876 360 0 1 361.8 -110.16523 L 361.8 -99.3293" />
    <path d="M 361.8 -110.16523 A 361.8 155.44876 360 0 1 -361.8 -110.16523 L -361.8 -99.3293 A 361.8 155.44876 180 0 0 361.8 -99.3293" />
    <path d="M -361.8 -110.16523 A 361.8 155.44876 360 0 1 -360.8 -121.71485" />
    <path d="M 259.36677 -26.52124 A 324.3 139.33674 180 0 0 324.24449 -107.5873" />
    <path d="M 6 29.14767 A 324.3 139.33674 180 0 0 225.03284 -9.83327" />
    <path d="M -225.03284 -9.83327 A 324.3 139.33674 180 0 0 -6 29.14767" />
    <path d="M -324.24449 -107.5873 A 324.3 139.33674 180 0 0 -259.36677 -26.52124" />
    <path d="M 6 180.30293 L -6 180.30293" />
    <path d="M 259.36677 -83.09471 A 361.8 155.44876 360 0 1 285.8 -70.03506" />
    <path d="M 360.8 13.7342 A 361.8 155.44876 360 0 1 361.8 25.28382 L 361.8 36.11975" />
    <path d="M 361.8 25.28382 A 361.8 155.44876 360 0 1 -361.8 25.28382 L -361.8 36.11975 A 361.8 155.44876 180 0 0 361.8 36.11975" />
    <path d="M -361.8 25.28382 A 361.8 155.44876 360 0 1 -360.8 13.7342" />
    <path d="M -285.8 -70.03506 A 361.8 155.44876 360 0 1 -259.36677 -83.09471" />
    <path d="M 259.36677 133.07602 L 250.88149 136.72175" />
    <path d="M 6 164.59672 A 324.3 139.33674 180 0 0 225.03284 125.61578" />
    <path d="M -225.03284 125.61578 A 324.3 139.33674 180 0 0 -6 164.59672" />
    <path d="M -324.24449 27.86175 A 324.3 139.33674 180 0 0 -259.36677 108.92781" />
    <path d="M -259.36677 -58.36016 A 324.3 139.33674 180 0 0 -283.41595 -42.4407" />
    <path d="M 283.41595 -42.4407 A 324.3 139.33674 180 0 0 259.36677 -58.36016" />
    <path d="M 259.36677 108.92781 A 324.3 139.33674 180 0 0 324.24449 27.86175" />
    <path d="M -276.02581 -37.02274 A 324.3 139.33674 360 0 1 -259.36677 -47.52424" />
    <path d="M -197.84848 -74.28246 A 324.3 139.33674 360 0 1 -190.96436 -76.49801" />
    <path d="M 190.96436 -76.49801 A 324.3 139.33674 360 0 1 197.84848 -74.28246" />
    <path d="M 259.36677 -47.52424 A 324.3 139.33674 360 0 1 276.02581 -37.02274" />
    <path d="M 6 315.75198 L -6 315.75198" />
    <path d="M 259.36677 52.35434 A 361.8 155.44876 360 0 1 285.8 65.41399" />
    <path d="M 360.8 149.18325 A 361.8 155.44876 360 0 1 361.8 160.73287 L 361.8 171.5688" />
    <path d="M 361.8 160.73287 A 361.8 155.44876 360 0 1 -361.8 160.73287 L -361.8 171.5688 A 361.8 155.44876 180 0 0 361.8 171.5688" />
    <path d="M -361.8 160.73287 A 361.8 155.44876 360 0 1 -360.8 149.18325" />
    <path d="M -285.8 65.41399 A 361.8 155.44876 360 0 1 -259.36677 52.35434" />
    <path d="M 259.36677 268.52507 L 250.88149 272.1708" />
    <path d="M 6 300.04577 A 324.3 139.33674 180 0 0 225.03284 261.06483" />
    <path d="M -225.03284 261.06483 A 324.3 139.33674 180 0 0 -6 300.04577" />
    <path d="M -324.24449 163.3108 A 324.3 139.33674 180 0 0 -259.36677 244.37686" />
    <path d="M -259.36677 77.08889 A 324.3 139.33674 180 0 0 -283.41595 93.00835" />
    <path d="M -161.21809 39.83343 A 324.3 139.33674 180 0 0 -197.84848 50.33067" />
    <path d="M 197.84848 50.33067 A 324.3 139.33674 180 0 0 161.21809 39.83343" />
    <path d="M 283.41595 93.00835 A 324.3 139.33674 180 0 0 259.36677 77.08889" />
    <path d="M 259.36677 244.37686 A 324.3 139.33674 180 0 0 324.24449 163.3108" />
    <path d="M -276.02581 98.42631 A 324.3 139.33674 360 0 1 -259.36677 87.92481" />
    <path d="M -197.84848 61.16659 A 324.3 139.33674 360 0 1 -156 49.41216" />
    <path d="M 156 49.41216 A 324.3 139.33674 360 0 1 197.84848 61.16659" />
    <path d="M 259.36677 87.92481 A 324.3 139.33674 360 0 1 276.02581 98.42631" />
    <path d="M -156 194.14364 A 156 67.026 180 0 0 -6 261.12005" />
    <path d="M 6 261.12005 A 156 67.026 180 0 0 156 194.14364" />
    <path d="M 140.60141 -65.77773 A 156 67.026 360 0 1 6 -27.83793" />
    <path d="M -6 -27.83793 A 156 67.026 360 0 1 -140.60141 -65.77773" />
    <path d="M -374.5 -225.74842 L -374.5 -214.91249" />
    <path d="M 374.5 -225.74842 L 374.5 -214.91249" />
    <path d="M -156 -68.63176 L -156 11.99141" />
    <path d="M -156 40.92701 L -156 147.44046" />
    <path d="M -156 176.37606 L -156 194.14364" />
    <path d="M 156 -68.63176 L 156 11.99141" />
    <path d="M 156 40.92701 L 156 147.44046" />
    <path d="M 156 176.37606 L 156 194.14364" />
</svg>