<svg version="1.1" xmlns="http://www.w3.org/2000/svg" viewBox="-376.00000100000005 -381.05137731075536 752.0000020000001 648.176839248149" fill="none" stroke="black" stroke-width="0.6%" vector-effect="non-scaling-stroke">
    <path d="M 15.1738 -50.34607 A 95 39.97556 360 0 1 -15.1738 -50.34607" />
    <path d="M 144.0165 -64.57736 A 156 65.64407 360 0 1 -144.0165 -64.57736" />
    <path d="M -156 200.48139 A 156 65.64407 180 0 0 156 200.48139" />
    <path d="M -265.16504 -333.83334 A 375 157.79826 360 0 1 375 -222.25312 A 375 157.79826 360 0 1 -375 -222.25312 A 375 157.79826 360 0 1 -265.16504 -333.83334 Z" />
    <path d="M -375 -211.36725 A 375 157.79826 180 0 0 375 -211.36725" />
    <path d="M 347.98 -222.25312 A 347.98 146.42836 360 0 1 -347.98 -222.25312" />
    <path d="M -246.05902 -326.70077 A 347.98 146.42836 360 0 1 347.98 -223.16028 L 347.98 -222.25312" />
    <path d="M 347.98 -223.16028 A 347.98 146.42836 360 0 1 -347.98 -223.16028 L -347.98 -222.25312" />
    <path d="M -347.98 -223.16028 A 347.98 146.42836 360 0 1 -246.05902 -326.70077" />
    <path d="M -169.69602 -70.65021 A 320.5 134.86491 180 0 0 169.69602 -70.65021" />
    <path d="M -156 -67.24888 L -156 200.48139" />
    <path d="M 156 -67.24888 L 156 200.48139" />
    <path d="M -375 -222.25312 L -375 -211.36725" />
    <path d="M 375 -222.25312 L 375 -211.36725" />
</svg>