<svg version="1.1" xmlns="http://www.w3.org/2000/svg" viewBox="-376.000001 -362.5338110176507 752.000002 674.1558535264617" fill="none" stroke="black" stroke-width="0.6%" vector-effect="non-scaling-stroke">
    <path d="M -265.16504 -317.67238 A 375 149.75228 360 0 1 375 -211.78153 A 375 149.75228 360 0 1 -375 -211.78153 A 375 149.75228 360 0 1 -265.16504 -317.67238 Z" />
    <path d="M -375 -200.77989 A 375 149.75228 180 0 0 375 -200.77989" />
    <path d="M -277.43689 -100.02776 A 320.5 127.98828 180 0 0 277.43689 -100.02776" />
    <path d="M -156 188.86145 A 156 62.29695 180 0 0 156 188.86145" />
    <path d="M -256.18479 52.63505 A 362.3 144.68067 360 0 1 -156 24.35801" />
    <path d="M 156 24.35801 A 362.3 144.68067 360 0 1 295.5181 71.23992" />
    <path d="M 325.83357 91.68032 A 362.3 144.68067 360 0 1 362.3 154.93973 A 362.3 144.68067 360 0 1 -362.3 154.93973 A 362.3 144.68067 360 0 1 -325.83357 91.68032" />
    <path d="M -295.5181 71.23992 A 362.3 144.68067 360 0 1 -256.18479 52.63505" />
    <path d="M -362.3 165.94137 A 362.3 144.68067 180 0 0 362.3 165.94137" />
    <path d="M -324.50777 160.44055 A 324.8 129.70544 360 0 1 -295.5181 112.12071" />
    <path d="M -266.29685 91.68032 A 324.8 129.70544 360 0 1 -156 52.17586" />
    <path d="M 156 52.17586 A 324.8 129.70544 360 0 1 266.29685 91.68032" />
    <path d="M 295.5181 112.12071 A 324.8 129.70544 360 0 1 324.50777 160.44055" />
    <path d="M 229.66828 246.65533 A 324.8 129.70544 180 0 0 324.8 154.93973 A 324.8 129.70544 180 0 0 302.70587 107.91898" />
    <path d="M 275.40404 86.1795 A 324.8 129.70544 180 0 0 156 41.17422" />
    <path d="M -156 41.17422 A 324.8 129.70544 180 0 0 -275.40404 86.1795" />
    <path d="M -302.70587 107.91898 A 324.8 129.70544 180 0 0 -324.8 154.93973 A 324.8 129.70544 180 0 0 229.66828 246.65533" />
    <path d="M -256.18479 -84.88542 A 362.3 144.68067 360 0 1 -253.66737 -85.88094" />
    <path d="M 253.66737 -85.88094 A 362.3 144.68067 360 0 1 295.5181 -66.28055" />
    <path d="M 325.83357 -45.84016 A 362.3 144.68067 360 0 1 362.3 17.41926 L 362.3 28.4209" />
    <path d="M 362.3 17.41926 A 362.3 144.68067 360 0 1 -362.3 17.41926 L -362.3 28.4209 A 362.3 144.68067 180 0 0 362.3 28.4209" />
    <path d="M -362.3 17.41926 A 362.3 144.68067 360 0 1 -325.83357 -45.84016" />
    <path d="M -295.5181 -66.28055 A 362.3 144.68067 360 0 1 -256.18479 -84.88542" />
    <path d="M -324.50777 22.92008 A 324.8 129.70544 360 0 1 -295.5181 -25.39977" />
    <path d="M -266.29685 -45.84016 A 324.8 129.70544 360 0 1 -214.45269 -68.99262" />
    <path d="M 214.45269 -68.99262 A 324.8 129.70544 360 0 1 266.29685 -45.84016" />
    <path d="M 295.5181 -25.39977 A 324.8 129.70544 360 0 1 324.50777 22.92008" />
    <path d="M 229.66828 109.13486 A 324.8 129.70544 180 0 0 324.8 17.41926 A 324.8 129.70544 180 0 0 302.70587 -29.60149" />
    <path d="M 275.40404 -51.34098 A 324.8 129.70544 180 0 0 228.99837 -74.56308" />
    <path d="M -228.99837 -74.56308 A 324.8 129.70544 180 0 0 -275.40404 -51.34098" />
    <path d="M -302.70587 -29.60149 A 324.8 129.70544 180 0 0 -324.8 17.41926 A 324.8 129.70544 180 0 0 229.66828 109.13486" />
    <path d="M 353.83901 -151.18625 A 362.3 144.68067 360 0 1 362.3 -120.10121 L 362.3 -109.09958" />
    <path d="M 362.3 -120.10121 A 362.3 144.68067 360 0 1 -362.3 -120.10121 L -362.3 -109.09958 A 362.3 144.68067 180 0 0 362.3 -109.09958" />
    <path d="M -362.3 -120.10121 A 362.3 144.68067 360 0 1 -353.83901 -151.18625" />
    <path d="M -324.50777 -114.60039 A 324.8 129.70544 360 0 1 -322.53624 -124.38659" />
    <path d="M 322.53624 -124.38659 A 324.8 129.70544 360 0 1 324.50777 -114.60039" />
    <path d="M 229.66828 -28.38562 A 324.8 129.70544 180 0 0 324.8 -120.10121 A 324.8 129.70544 180 0 0 324.49498 -125.72107" />
    <path d="M -324.49498 -125.72107 A 324.8 129.70544 180 0 0 -324.8 -120.10121 A 324.8 129.70544 180 0 0 229.66828 -28.38562" />
    <path d="M -375 -211.78153 L -375 -200.77989" />
    <path d="M 375 -211.78153 L 375 -200.77989" />
    <path d="M -156 -52.30396 L -156 -6.3357" />
    <path d="M -156 21.48215 L -156 131.18477" />
    <path d="M -156 159.00262 L -156 188.86145" />
    <path d="M 156 -52.30396 L 156 -6.3357" />
    <path d="M 156 21.48215 L 156 131.18477" />
    <path d="M 156 159.00262 L 156 188.86145" />
    <path d="M -362.3 154.93973 L -362.3 165.94137" />
    <path d="M 362.3 154.93973 L 362.3 165.94137" />
</svg>